<svg width="128" height="128" viewBox="0 0 128 128" fill="none" xmlns="http://www.w3.org/2000/svg">
<path d="M52 45H76V105H52V45Z" fill="#1E293B" stroke="#0F172A" stroke-width="3" stroke-linecap="round" stroke-linejoin="round"/>
<path d="M44 65H84V73H44V65Z" fill="#94A3B8" stroke="#0F172A" stroke-width="3" stroke-linecap="round" stroke-linejoin="round"/>
<path d="M64 118C67.3137 118 70 115.314 70 112C70 108.686 67.3137 106 64 106C60.6863 106 58 108.686 58 112C58 115.314 60.6863 118 64 118Z" fill="#94A3B8" stroke="#0F172A" stroke-width="3" stroke-linecap="round" stroke-linejoin="round"/>
<path d="M68 24H60V32H68V24Z" fill="#94A3B8" stroke="#0F172A" stroke-width="3" stroke-linecap="round" stroke-linejoin="round"/>
<path d="M54 18H74V24H54V18Z" fill="#94A3B8" stroke="#0F172A" stroke-width="3" stroke-linecap="round" stroke-linejoin="round"/>
<path d="M57 12H47C46.4477 12 46 12.4477 46 13V19C46 19.5523 46.4477 20 47 20H57C57.5523 20 58 19.5523 58 19V13C58 12.4477 57.5523 12 57 12Z" fill="#1E293B" stroke="#0F172A" stroke-width="3" stroke-linecap="round" stroke-linejoin="round"/>
<path d="M52 20V14" stroke="#0F172A" stroke-width="3" stroke-linecap="round" stroke-linejoin="round"/>
<path d="M72 21H82Z" fill="#94A3B8"/>
<path d="M72 21H82" stroke="#0F172A" stroke-width="3" stroke-linecap="round" stroke-linejoin="round"/>
<path d="M86 29C90.4183 29 94 25.4183 94 21C94 16.5817 90.4183 13 86 13C81.5817 13 78 16.5817 78 21C78 25.4183 81.5817 29 86 29Z" fill="white" stroke="#0F172A" stroke-width="3" stroke-linecap="round" stroke-linejoin="round"/>
<path d="M82 17C83.1 16.0161 84.5241 15.4721 86 15.4721C87.4759 15.4721 88.9 16.0161 90 17" stroke="#22C55E" stroke-width="1.5" stroke-linecap="round"/>
<path d="M86 21L89 16" stroke="#EF4444" stroke-width="2" stroke-linecap="round"/>
<path d="M86 22.5C86.8284 22.5 87.5 21.8284 87.5 21C87.5 20.1716 86.8284 19.5 86 19.5C85.1716 19.5 84.5 20.1716 84.5 21C84.5 21.8284 85.1716 22.5 86 22.5Z" fill="#0F172A"/>
<path d="M48 44C48 30 80 30 80 44V100C80 108 48 108 48 100V44Z" fill="#F5F5F7" stroke="#0F172A" stroke-width="3" stroke-linecap="round" stroke-linejoin="round"/>
<path d="M48 85H80V100C80 108 48 108 48 100V85Z" fill="#1E293B" stroke="#0F172A" stroke-width="3" stroke-linecap="round" stroke-linejoin="round"/>
<path d="M80 48H48V60H80V48Z" fill="#FBBF24" stroke="#0F172A" stroke-width="3" stroke-linecap="round" stroke-linejoin="round"/>
<path opacity="0.25" d="M53 42C53 36 58 34 64 34C56 35 52 40 52 45V98C52 101 54 103 54 103C53 101 53 99 53 98V42Z" fill="white"/>
</svg>
