<svg xmlns="http://www.w3.org/2000/svg" width="1000" height="1000"><path fill="none" d="M0 0h1000v1000H0z" id="svg-layer-0" style="pointer-events: all; fill: none;"/><path fill="#040505" d="M425 228c2.262.414 2.262.414 4.688.625l2.449.227L434 229v2l1.895.574C438 233 438 233 439.012 236.082l.675 3.73.7 3.708L441 247c.33 1.668.66 3.335 1 5h2l1.61 3.543 2.14 4.644 1.055 2.33c1.996 4.308 4.047 7.88 7.195 11.483l2.113 2.719c4.266 5.394 8.16 9.504 13.887 13.281v2l1.938.75C477 294 477 294 478.878 295.023c7.21 3.745 14.747 4.388 22.638 2.317 5.882-2.376 10.663-6.293 15.484-10.34.963-.755 1.926-1.51 2.918-2.29 3.405-2.841 6.028-6.132 8.707-9.647l1.406-1.803c7.807-10.089 7.807-10.089 9.719-15.635L541 254h2l.375-2.125C544 249 544 249 545 246.313c.904-2.996 1.184-5.346 1.375-8.438.293-3.088.554-4.745 2.063-7.5 4.034-2.165 8.08-1.683 12.562-1.375v-2c5.356-2.678 13.103-.728 18.813.25l2.271.332c5.502.934 5.502.934 7.611 3.398L591 233c2.41 1.16 2.41 1.16 5.063 2.063 4.723 1.616 4.723 1.616 6.937 4.937.199 2.526.284 4.914.25 7.438l-.016 2.16c-.137 7.725-1.345 15.12-3.297 22.59-.881 3.585-1.306 6.957-1.66 10.617-.335 2.658-1.04 5.18-1.742 7.761-.995 4.526-1.437 9.152-1.972 13.75-.564 3.694-1.484 7.111-2.563 10.684-1.628 8.302-2.724 16.737 2 24 2.395 4.891 3.376 8.395 3.381 13.925l.014 2.001c.012 2.194.003 4.387-.007 6.581q.007 2.37.016 4.743c.014 4.28.008 8.562-.001 12.843-.008 4.49 0 8.98.004 13.47q.007 11.316-.016 22.63a6920 6920 0 0 0 .006 26.108q.02 11.23.007 22.46-.008 6.697.005 13.394.012 6.303-.015 12.605-.006 2.304.004 4.607c.05 12.885-1.713 23.03-9.398 33.633-2.563 2.438-2.563 2.438-5 4l-2.687 1.75C578 535 578 535 576 535l1 1.688c1.248 2.885 1.666 4.205 1 7.312a36 36 0 0 1-7 6h-2v2l-4 1v2l-7 1-1.292-3.23c-2.192-4.62-4.57-8.656-8.708-11.77-8.012-2.796-17.135-1.74-25.477-1.465q-3.744.043-7.49.064c-5.88.052-11.757.17-17.636.32-7.357.186-14.714.266-22.073.349-13.11.16-26.217.413-39.324.732l-.903 2.333c-1.2 2.916-2.659 5.36-4.41 7.98l-1.738 2.675C427 556 427 556 424.523 556.504c-3.104-.62-4.331-1.683-6.586-3.879-2.544-2.448-4.728-4.151-7.937-5.625-1.75-1.312-1.75-1.312-3-3-.464-3.617.155-5.886 2-9l-2.71-.715c-6.855-2.678-11.742-9.45-14.728-16.035A97 97 0 0 1 390 514l-1.03-2.714c-1.04-3.525-1.227-6.396-1.237-10.066l-.014-1.99c-.013-2.188-.011-4.376-.01-6.563q-.009-2.362-.02-4.723a3338 3338 0 0 1-.024-12.8q-.001-4-.01-8.003-.028-13.97-.026-27.94c.002-8.673-.02-17.344-.051-26.016q-.038-11.181-.036-22.362c0-4.448-.005-8.896-.026-13.344q-.029-6.277-.005-12.553.003-2.298-.015-4.596c-.06-8.046.076-14.377 4.504-21.33q1.011-2.495 2-5l1-1c.099-1.81.13-3.625.125-5.437l.008-2.997C395 322 395 322 394 320c-.309-2.298-.509-4.597-.719-6.906C393 311 393 311 392 309c-.469-3.193-.867-6.386-1.25-9.59-.65-5.21-.65-5.21-1.75-7.41a105 105 0 0 1-.684-4.508l-.373-2.742-.75-5.68A133 133 0 0 0 384 263c-3.687-18.208-3.687-18.208 0-25 2.675-3.126 5.325-3.956 9.16-5.156C395 232 395 232 397 229a80 80 0 0 1 8.125-1.687l2.227-.393c12.827-2.134 12.827-2.134 17.648 1.08" id="svg-layer-1" style="pointer-events: all;"/><path fill="#090B0B" d="m703.29 349.757 2.831.013 3.084.005 3.232.038 3.221.001c7.92.046 7.92.046 11.342 1.186 1.594 3.188 1.102 6.629 1.063 10.125l-.014 2.285q-.02 2.795-.049 5.59l3.078.262c9.079.882 16.688 2.585 24.922 6.738l2.563 1.262c4.559 2.377 8 4.85 11.437 8.738l1.715 1.813c3.023 3.272 5.449 6.207 7.222 10.312 1.848 4.089 4.481 6.086 8.16 8.55 4.092 2.849 5.452 5.228 6.966 10.012l.972 3.012L796 423l1.105 3.578c1.403 5.753 1.192 11.598 1.145 17.485l-.018 3.653c-.096 8.612-.7 16.801-2.232 25.284q-.334 2.161-.66 4.324c-1.676 10.75-4.11 19.633-10.34 28.676-2.134 4.268-3.35 8.29-4.437 12.938-1.228 5.19-2.97 9.412-5.563 14.062h7v-8c2.717-1.358 4.908-1.132 7.938-1.125l3.214-.008C796 524 796 524 799 525q.037 10.626.055 21.252.008 3.618.02 7.235c.013 3.46.018 6.92.023 10.38l.015 3.283v3.033l.007 2.678C799 575 799 575 798 577h-15c-1-2-1-2-1-8h-13v-5h-16l-2 6c-1.8 4.57-5.054 7.896-9.312 10.313L740 581v2l-6 2v19h-5l.063 2.938C729 610 729 610 728 611a79 79 0 0 0-.535 4.473l-.264 2.724-.264 2.865-.275 2.877q-.337 3.53-.662 7.061h-4l.013 2.597q.06 12.159.09 24.317.015 6.25.048 12.5.032 6.04.039 12.08.005 2.295.021 4.59c.07 10.21-.563 19.101-4.356 28.67-1.442 3.787-2.646 7.655-3.89 11.512A47 47 0 0 1 711 734h-2l-.812 2.125c-1.256 3.04-2.69 5.948-4.188 8.875h-2l-1 4h-2l-.687 1.625c-3.218 5.823-7.758 9.82-13 13.75l-1.76 1.363C679.265 769 679.265 769 677 769v2l-7 2v2q-1.903.758-3.812 1.5l-2.145.844C662 778 662 778 659 778v2c-18.56 6.793-36.479 6.808-55.934 6.608-4.34-.038-8.682-.04-13.024-.048-8.184-.018-16.368-.067-24.551-.128-9.333-.067-18.666-.1-28-.13A15302 15302 0 0 1 480 786v-2l-3.562-.25c-7.147-.91-11.621-4.543-16.438-9.75l-2.125-2c-2.943-3.14-4.875-5.628-4.875-10h-2c-3.356-10.487-3.438-21.14 1.328-31.18 4.978-8.396 11.702-14.895 20.672-18.82 8.068-2.01 16.193-2.298 24.466-2.303l3.582-.026c3.867-.025 7.734-.037 11.6-.05q4.056-.023 8.112-.051 9.55-.061 19.102-.103 17.12-.077 34.24-.185 6.962-.042 13.925-.068l7.283-.04 3.335-.008c4.892-.034 9.548-.13 14.355-1.166v-2l3.25-1.687c4.437-2.533 7.115-5.408 8.75-10.313h2c.059-3.354.094-6.708.125-10.062l.05-2.858c.039-5.445-.362-9.935-2.175-15.08h-2l-.687-2.375C621 661 621 661 618.625 659.875L616 659l-1.812-1.562c-4.964-3.262-12.569-2.616-18.407-2.754l-2.252-.063q-3.514-.096-7.029-.183l-4.805-.131A6143 6143 0 0 0 570 654v4h-6v4h-8l.035 3.176.028 4.136.025 2.092c.022 4.646-.237 7.417-3.001 11.246-4.435 3.376-8.04 3.031-13.473 2.95l-3.166.011c-3.45.007-6.9-.022-10.35-.052q-3.6-.007-7.2-.007a2579 2579 0 0 1-15.088-.065c-6.444-.045-12.888-.06-19.332-.064-4.956-.004-9.912-.02-14.868-.039q-3.563-.012-7.127-.02-4.984-.015-9.967-.058c-.98 0-1.961 0-2.971-.002-6.355-.07-11.135-.697-16.545-4.304-2.396-4.277-2.236-8.544-2.125-13.312l.027-2.245c.024-1.814.06-3.629.098-5.443h-8l-1-7-2.798.08c-3.428.085-6.854.147-10.282.195q-2.224.037-4.45.102c-2.132.06-4.263.09-6.396.111l-3.888.08C391 653 391 653 389.081 650.692c-1.392-3.467-1.485-5.986-1.081-9.692 1.081-2.19 1.081-2.19 3-4 3.186-.454 3.186-.454 7.074-.39.684.005 1.368.01 2.072.017 2.182.022 4.36.072 6.541.123q2.22.03 4.44.055c3.625.044 7.249.113 10.873.195v-7h2l-.032-3.194c-.036-3.934-.059-7.868-.078-11.802q-.015-2.548-.04-5.095c-.025-2.45-.037-4.9-.045-7.35l-.032-2.277c0-5.568.309-11.003 4.032-15.427l2.07-1.668 2.055-1.707c3.893-2.783 6.614-3.73 11.434-3.739l3.245-.019 3.489.012 3.593-.005q3.76-.003 7.517.01c3.843.011 7.685 0 11.528-.012q3.65 0 7.3.007l3.494-.012 3.236.02c.94 0 1.881.002 2.85.004C492 578 492 578 495 580c.293 2.383.293 2.383.188 5.125l-.083 2.758L495 590l1.898-.035 2.477-.028 2.46-.035C504 590 504 590 506 591v6l2.938-.062C512 597 512 597 513 598c.04 2 .043 4 0 6l3.165-.016q5.813-.026 11.624-.039 2.515-.008 5.031-.02c2.41-.013 4.82-.018 7.23-.023l2.274-.015c5.02 0 7.605.094 11.344 3.652 3.024 3.794 2.92 7.15 2.644 11.836l-.068 2.23c-.058 1.8-.148 3.598-.244 5.395h7l1 3h6l1 5h41v2l2.063-.187c5.977.381 9.945 2.937 13.937 7.187l2.938 1.938c7.167 4.826 11.05 11.018 14.062 19.062.168 3.379.168 3.379 0 6h2c.781 17.105-.518 28.617-12 42l-1.84 2.523c-2.474 2.837-4.879 4.34-8.16 6.164l-3.125 1.762L619 725l-2.172 1.2c-2.623 1.148-5.005.928-7.828.8v2l-1.982.007q-23.888.089-47.775.229-11.55.07-23.103.11-10.07.034-20.14.103-5.33.037-10.66.049c-3.97.007-7.94.037-11.909.07l-3.561-.005c-10.059.116-10.059.116-14.87 3.437a71 71 0 0 0-3 4h-2c-1.07 3.504-1.166 6.785-1.187 10.438l-.043 3.37c.228 3.158.886 5.35 2.23 8.192h2l.563 1.813c2.143 3.262 4.776 4.246 8.437 5.187 4.858.447 9.711.421 14.586.404l4.447.02c4.015.019 8.03.018 12.045.012 3.364-.003 6.728.003 10.092.009q11.924.02 23.848.001c8.164-.011 16.328.003 24.493.03q10.552.032 21.106.022c4.19-.003 8.38 0 12.57.017q5.926.02 11.852-.008 2.154-.005 4.31.01c13.15.09 26.31-1.966 38.026-8.267l2-1.041c15.457-8.302 28.82-21.545 34.625-38.209h2l.367-1.652c.821-3.695 1.638-7.364 2.647-11.014 1.562-7.078 1.345-14.313 1.4-21.525q.028-2.336.059-4.67.073-6.103.128-12.206c.04-4.164.091-8.327.141-12.49q.144-12.22.258-24.443l-3-1c-.695-1.75-.695-1.75-1.125-4l-.473-2.437c-.512-3.262-.876-6.523-1.156-9.813C697 612 697 612 696 611q-.062-3.5 0-7h-5v-20l-4-1c-4.728-3.183-8.2-7.071-11-12v-2h-2l-1.375-4.125-.855-2.5c-.77-2.375-.77-2.375-1.457-5.5-1.394-3.052-2.303-3.804-4.875-5.812-4.131-3.367-6.674-7.164-9.375-11.688-.39-.646-.78-1.291-1.18-1.957-1.99-3.435-3.405-6.46-3.883-10.418h-2c-4-14-4-14-5.031-17.852-.949-3.083-1.61-4.11-3.969-6.148v-2h-2q-.938-3.03-1.875-6.062l-1.055-3.41L634 488l-1.062-3.484c-3.268-12.253-3.16-25.101-3.236-37.7q-.015-2.426-.043-4.852a571 571 0 0 1-.022-6.94l-.028-2.089c.048-5.225 1.394-9.215 3.391-13.935l1.25-3.5c2.26-4.52 5.335-7.818 8.75-11.5 2.6-2.982 4.494-5.886 6.313-9.375 5.59-10.231 15.923-17.776 26.765-21.781C683.454 370.714 691.32 369 699 369l-.07-3.648q-.029-2.364-.055-4.727l-.05-2.406c-.018-2.074.072-4.148.175-6.219 2-2 2-2 4.29-2.243" id="svg-layer-2" style="pointer-events: all;"/><path fill="#0B0C0D" d="m267.598 246.602 2.517-.01q2.629-.002 5.257.017c2.685.016 5.368 0 8.052-.02q2.556.004 5.111.013l2.434-.019c5.489.07 5.489.07 8.042 1.705 1.76 3.046 1.293 6.487 1.176 9.9l-.04 2.271c-.036 1.847-.09 3.694-.147 5.541-3.215 1.607-6.436 1.057-10 1v9h10l1-4h5v-5c3.083-.087 6.166-.14 9.25-.187l2.645-.077 2.558-.029 2.349-.048c2.943.456 4.184 1.13 6.198 3.341.486 3.123.486 3.123.46 6.934 0 .674 0 1.348-.002 2.043a325 325 0 0 1-.046 4.274 384 384 0 0 0-.04 6.524c-.085 11.867-.085 11.867-2.372 15.225-3.31 1.655-6.991 1.1-10.625 1.063l-2.43-.014q-2.972-.02-5.945-.049l-2-5h-5l-1-4h-10v6l2.438-.062C295 303 295 303 296 304q.062 3.5 0 7l3.438.375L303 312c1 2 1 2 .746 5.266-.326 4.204-.436 7.575.254 11.734 2.865 3.11 6.122 4.44 10 6 7.965 4.749 13.285 11.517 17 20v3h2q.727 2.748 1.438 5.5l.808 3.094c1.96 8.856 1.886 17.604 1.852 26.625l-.005 4.405q-.006 5.76-.024 11.52-.014 5.893-.02 11.786-.016 11.535-.049 23.07l2.266-.105 2.984-.082 2.953-.106c3.252.34 4.56.925 6.797 3.293.508 2.087.508 2.087.518 4.516l.038 2.76-.025 2.974.012 3.06a704 704 0 0 1-.022 6.405c-.02 3.273 0 6.543.026 9.816q-.004 3.11-.016 6.219l.025 2.974-.038 2.76-.01 2.43C352 493 352 493 350.328 494.618c-2.903 1.722-4.73 1.688-8.078 1.568l-2.984-.082L337 496l.014 2.215q.166 26.745.245 53.49c.026 8.622.06 17.244.118 25.866q.076 11.28.093 22.56c.007 3.977.022 7.954.059 11.932q.05 5.629.037 11.258c.002 2.016.028 4.032.056 6.048-.062 11.148-3.429 20.052-9.685 29.193l-1.972 2.942c-1.846 2.345-3.436 3.934-5.965 5.496h-2v2h-3v2c-12.83 6.453-25.841 5.575-39.875 5.313q-3.517-.038-7.035-.069c-5.697-.054-11.394-.138-17.09-.244v-2l-3.125-.375c-3.518-.567-6.577-1.29-9.875-2.625l-1-2-1.828-.379c-2.905-.83-3.987-2.272-5.922-4.558l-1.86-2.153C226 660 226 660 226 658h-2c-3-5.625-3-5.625-3-9h-2c-1.914-8.486-2.275-16.606-2.227-25.284v-4.202c-.002-3.768.01-7.535.024-11.303.013-3.95.014-7.901.016-11.852q.011-11.197.043-22.396c.022-8.505.033-17.01.043-25.516q.032-26.223.101-52.447l-2.484.14-3.266.11-3.234.14c-3.687-.477-4.774-1.494-7.016-4.39-.501-2.17-.501-2.17-.502-4.537l-.028-2.7.034-2.892-.005-2.988q.004-3.123.034-6.246c.03-3.191.021-6.381.008-9.573q.01-3.033.025-6.068l-.008-2.898.038-2.69.016-2.366C201 447 201 447 202.107 445.236c2.844-1.857 5.23-1.523 8.58-1.423l3.575.082L217 444l-.027-2.543q-.12-11.979-.18-23.957c-.02-4.103-.049-8.207-.095-12.31-.044-3.975-.067-7.95-.078-11.924a462 462 0 0 0-.043-4.505c-.115-8.196.368-15.876 2.217-23.884l.479-2.081c3.375-13.282 12.627-24.187 24.102-31.358 2.942-1.724 4.177-2.438 7.625-2.438l-.07-2.957-.055-3.856-.07-3.832C251 315 251 315 253 312c3.125-.187 3.125-.187 6 0v-8h6v-8l-2.937.063C259 296 259 296 258 295a57 57 0 0 1-.098-4.035l.01-2.451.026-2.577.013-2.587q.02-3.175.049-6.35h7v-10l-6.055.293L257 267c-2.437-3.656-2.33-5.646-2.375-10l-.086-3.75c.461-3.25.461-3.25 1.952-4.928 3.62-1.908 7.112-1.75 11.107-1.72" id="svg-layer-3" style="pointer-events: all;"/><path fill="#53626A" d="M220 508q15.988-.035 31.976-.052 7.426-.007 14.853-.023 7.188-.016 14.375-.02 2.721-.003 5.442-.01c10.222-.03 20.36.17 30.558.89 3.951.224 7.84.247 11.796.215h4c.618 17.676 1.111 35.351 1.177 53.039q.01 2.458.031 4.916c.018 2.296.022 4.592.022 6.889l.013 3.974C334 581 334 581 332 584l2 2c.188 3.016.255 5.938.23 8.953v2.706q-.006 2.84-.024 5.68c-.018 2.885-.02 5.771-.02 8.657l-.018 5.52-.003 2.604c-.035 4.415-.363 8.525-1.165 12.88l.125 3.313c-.205 6.058-2.352 11.346-5.125 16.687h-2l-.187 1.688c-1.17 3.329-3.218 4.948-5.813 7.312l-1.488 1.36c-2.972 2.61-5.625 4.743-9.512 5.64-2.812-.875-2.812-.875-5-2l-1 2 3 1v1a49.4 49.4 0 0 1-10.15 1.209l-3.037.058c-4.582.058-9.165.107-13.748.138q-3.609.033-7.218.103c-27.448.53-27.448.53-39.597-10.758-3.25-3.409-3.25-3.409-3.25-5.75h-2c-3.64-6.435-5.641-11.588-6-19h-1V513h2v-2l-2-1z" id="svg-layer-4" style="pointer-events: all;"/><path fill="#54636B" d="M234.438 347.875 238 348c2.81 0 5.619-.01 8.428-.022q13.004-.054 26.007-.082 7.2-.014 14.4-.047 6.958-.032 13.918-.039 2.654-.005 5.312-.021c2.47-.015 4.94-.017 7.412-.016l2.23-.022c5.065.02 5.065.02 7.293 2.249l1.957 1.707c2.52 2.828 3.486 5.41 4.73 8.98l1.262 3.512c1.962 7.098 2.206 14.352 2.367 21.684l.063 2.477q.064 2.578.124 5.158.09 3.87.19 7.74.063 2.531.123 5.062c.02.748.038 1.495.057 2.265.167 7.477.127 14.93.127 22.415H220c0-82.6 0-82.6 14.438-83.125" id="svg-layer-5" style="pointer-events: all;"/><path fill="#A8ADB0" d="m709.469 629.867 3.031.008 3.031-.008C718 630 718 630 719 631c.11 2.006.15 4.017.161 6.026l.03 3.918.012 4.283.017 4.394q.015 4.627.02 9.256c.006 3.912.03 7.824.058 11.736.02 3.035.024 6.07.026 9.107q.004 2.159.024 4.316c.214 25.013-7.535 48.211-24.348 66.964l-2.61 2.93C676.87 770.7 654.784 781.108 632 783c-4.814.15-9.627.147-14.443.145l-4.364.01q-5.898.014-11.795.012l-7.382.006q-12.893.014-25.785.012-11.992.001-23.983.026-10.32.019-20.64.018-6.154-.002-12.307.013-5.787.014-11.576.003-2.115-.003-4.23.007c-12.94.052-23.596-1.092-33.542-10.107-7.528-8.06-10.35-17.059-10.23-27.915.813-9.477 5.221-17.441 12.054-23.914 8.79-7.208 18.52-8.913 29.604-8.814l3.592-.017q3.831-.015 7.663-.001c4.05.012 8.098.001 12.147-.016 7.864-.031 15.728-.033 23.593-.03 10.013 0 20.026-.01 30.04-.05 4.66-.017 9.32-.01 13.98.002l7.352-.021 3.324.023c10.397-.068 20.07-2.21 27.928-9.392 5.13-6.656 8.603-14.14 8.305-22.703-1.264-9.524-4.988-17.04-12.305-23.297-6.546-4.27-12.501-5.144-20.23-5.281l-2.398-.056c-3.378-.079-6.757-.147-10.135-.215q-3.703-.08-7.405-.167l-2.333-.04c-5.386-.128-5.386-.128-6.499-1.241-.099-1.998-.13-4-.125-6l-.008-3.312C570 638 570 638 571 637c4.216-.221 8.44-.186 12.66-.185 2.106-.002 4.21-.02 6.315-.04 15.224-.066 29.828 1.551 41.44 12.483 10.094 11.09 13.558 22.715 12.96 37.469-.798 11.37-6.533 21.069-14.988 28.601-8.592 6.562-17.717 10.788-28.635 10.803l-3.143.012-3.417-.001-3.623.01q-3.894.012-7.787.017-6.167.01-12.333.041l-4.23.019-2.14.01c-9.565.042-19.13.075-28.696.087q-9.69.011-19.38.07c-3.413.019-6.826.031-10.24.026-3.813-.002-7.625.02-11.438.048l-3.392-.02c-7.63.09-14.367 1.185-20.09 6.585l-1.343 2.028-1.406 2.035c-2.871 4.994-2.736 10.318-2.094 15.902 1.663 5.147 3.783 8.942 7.875 12.5 8.027 3.853 15.245 3.791 24.052 3.775l4.236.015c3.823.013 7.646.014 11.469.012q4.807 0 9.614.008 11.362.016 22.726.006c7.775-.006 15.55.006 23.324.027q10.055.027 20.11.02c3.99-.001 7.981.001 11.972.015 31.482.101 58.035-2.145 81.622-25.378 17.002-16.97 22.24-38.247 22.379-61.598l.051-4.456c.046-3.878.08-7.755.113-11.633q.079-9.355.188-18.711.033-3.265.055-6.53l.04-3.967.03-3.508c.19-3.414.21-3.547 3.613-3.73" id="svg-layer-6" style="pointer-events: all;"/><path fill="#57666F" d="M440 255c2.634 2.35 3.998 4.728 5.563 7.875 2.853 5.405 6.276 10.058 10.097 14.796 1.968 2.455 3.335 4.313 4.34 7.329a118 118 0 0 0 4 2 124 124 0 0 1 4.125 3.813c7.935 7.213 16.224 10.622 26.883 10.453C508.71 300.049 520.308 290.07 529 280c5.79-7.413 12.013-16.038 15-25h2a119175 119175 0 0 1-3.027 32.617l-.25 2.694q-.72 7.747-1.508 15.49c-1.407 14.416-1.407 14.416 1.125 18.203C544 325.375 544 325.375 547 327c-1.24 3.294-2.625 6.212-4.52 9.176l-1.565 2.458-1.727 2.678-1.837 2.866c-7.73 12.024-15.578 23.972-23.45 35.902a2573 2573 0 0 0-7.541 11.496 2033 2033 0 0 1-3.382 5.16q-2.055 3.129-4.093 6.27l-1.83 2.771-1.579 2.414C494 410 494 410 491 411l-1.18-2.098c-3.24-5.665-6.604-11.181-10.257-16.59-4.611-6.825-9.07-13.743-13.5-20.687-4.649-7.283-9.3-14.563-14-21.812A5646 5646 0 0 1 438 328l2.375-1.812c2.859-2.383 4.506-3.907 4.859-7.694a221 221 0 0 0-1.328-21.209l-.336-3.208c-.35-3.339-.71-6.677-1.07-10.014q-.539-5.044-1.07-10.09-.33-3.122-.668-6.243l-.303-2.855-.27-2.494c-.196-2.47-.221-4.904-.189-7.381" id="svg-layer-7" style="pointer-events: all;"/><path fill="#F9F9FA" d="m697.5 406.734 3.752-.005q3.897-.002 7.795.01c3.943.011 7.885 0 11.828-.012q3.813 0 7.625.007l3.518-.012c18.636.105 18.636.105 24.982 3.278v2h2a452 452 0 0 1 2.813 5.313l1.582 2.988c3.877 8.31 5.067 16.732 5.039 25.816l.015 3.088q.01 3.21-.003 6.419c-.008 3.236.02 6.471.052 9.708.076 21.974.076 21.974-4.498 30.668-3.48 2.32-4.905 2.566-9 2-1.836-1.95-1.836-1.95-3.375-4.687l-1.77-3.036L748 487q-2.019-3.32-4.062-6.625l-2.024-3.297a278 278 0 0 0-10.601-15.828A88.5 88.5 0 0 1 724 449a463 463 0 0 0-9.687-.312l-2.764-.127c-6.751-.123-6.751-.123-10.338 2.404-2.82 3.87-5.406 7.823-7.899 11.91q-1.585 2.558-3.175 5.113l-1.593 2.561c-2.238 3.551-4.57 7.036-6.919 10.514-3.351 4.969-6.549 10-9.566 15.18C671 498 671 498 670 499c-1.666.04-3.334.043-5 0l-1-4h-2q-.725-2.78-1.437-5.562l-.81-3.13c-1.411-6.196-1.92-12.251-1.956-18.593l-.017-2.358q-.014-2.462-.02-4.924c-.01-2.464-.04-4.928-.072-7.392-.065-9.614.308-18.801 3.312-28.041l2-2a75 75 0 0 0 1.313-4.312c1.477-4.442 2.65-7.023 6.687-9.688 8.734-2.056 17.57-2.297 26.5-2.266" id="svg-layer-8" style="pointer-events: all;"/><path fill="#F9D544" d="m211.625 446.873 3.624-.009 19.595.002q5.957.002 11.914-.002 10.004-.003 20.007.006 11.58.006 23.162-.002 9.929-.007 19.858-.003 5.936.003 11.873-.001 5.579-.004 11.156.005 2.054 0 4.106-.002 2.792-.001 5.582.006l3.163.001C348 447 348 447 349 448c.103 1.34.138 2.685.145 4.03l.02 2.588.003 2.816.01 2.873q.007 3.015.007 6.03c.002 3.084.02 6.167.04 9.25q.005 2.924.005 5.847l.022 2.809-.01 2.599.005 2.292C349 491 349 491 347 493c-2.443.252-2.443.252-5.58.254l-3.595.017-3.964-.012q-2.079.004-4.158.01c-3.77.01-7.541.006-11.312 0-3.94-.005-7.88 0-11.82.002q-9.927.006-19.854-.01-11.487-.015-22.975.003-9.85.014-19.702.006-5.888-.007-11.777.003-5.535.007-11.07-.01c-2.007-.004-4.012.002-6.018.008l-3.595-.017-3.137-.002C206 493 206 493 204 491c-.24-1.873-.24-1.873-.227-4.174v-2.609l.032-2.819.008-2.883c.011-3.047.037-6.093.062-9.14q.016-3.094.027-6.187.035-7.595.098-15.188c2.654-1.327 4.651-1.126 7.625-1.127" id="svg-layer-9" style="pointer-events: all;"/><path fill="#57666F" d="M588 337c4.62 4.196 5.771 9.249 6.28 15.356.125 4.088.149 8.165.14 12.255q.01 2.352.026 4.704c.022 4.238.025 8.475.023 12.713q.002 5.322.017 10.645.027 12.567.015 25.133c-.007 8.618.016 17.236.053 25.853q.045 11.131.038 22.264c-.002 4.422.004 8.844.028 13.267.023 4.162.02 8.324 0 12.487q-.005 2.278.016 4.556c.096 10.793-1.29 20.008-7.952 28.837l-2.246 2.055-2.254 2.133C579.03 531.773 577.07 533 573 533a101 101 0 0 1-5.187-7.25l-1.346-2.008c-1.5-2.24-2.983-4.491-4.467-6.742a2911 2911 0 0 0-14.668-21.875l-1.836-2.717q-3.78-5.596-7.565-11.187c-7.312-10.805-14.567-21.64-21.623-32.614l-1.497-2.322-1.41-2.206c-1.372-2.036-2.864-3.916-4.394-5.833C507 435 507 435 507.5 432.368L509 430l1.386-2.374 1.634-2.513 1.885-2.911L516 419l2.287-3.51c2.04-3.13 4.089-6.256 6.139-9.38a10885 10885 0 0 0 6.273-9.567l1.13-1.724q1.584-2.41 3.171-4.819l1.086-1.74c.921-1.454 1.912-2.862 2.914-4.26h2l.188 1.875L542 388c2.55 1.133 2.55 1.133 5 2l.031 3.555q.147 16.555.308 33.11.084 8.51.158 17.023.072 8.208.156 16.417.031 3.137.056 6.275.037 4.382.086 8.764l.017 2.642c.074 5.986.074 5.986 1.188 8.214 8.167 1.426 18.48 2.76 26-1l1-95 6-2v-38l-4-2v-6l1.934-.84 2.504-1.098 2.496-1.09C587 338 587 338 588 337M396 336l12 6v6l-4 2v39l6 2-.013 3.428q-.062 15.98-.09 31.96-.015 8.216-.048 16.43-.032 7.928-.039 15.854-.005 3.026-.021 6.052c-.015 2.823-.017 5.646-.016 8.468l-.022 2.535c.028 7.914.028 7.914 2.249 10.273 7 1 7 1 26 0l1-96 5-2c1.813-1.625 1.813-1.625 3-3l8.873 13.594c3.142 4.817 6.281 9.637 9.397 14.472l1.475 2.29q1.335 2.073 2.664 4.15l1.224 1.9 1.16 1.813c.84 1.24 1.73 2.447 2.655 3.625 3.529 4.507 3.529 4.507 3.642 7.664-1.48 3.385-3.42 6.35-5.527 9.367l-2.77 4.059-1.424 2.07c-2.028 2.958-4.01 5.945-5.994 8.933l-2.504 3.754q-3.235 4.853-6.46 9.711a3898 3898 0 0 1-27.493 40.778c-1.788 2.63-3.561 5.27-5.328 7.914l-1.538 2.285q-1.38 2.052-2.743 4.117c-2.97 4.391-2.97 4.391-6.309 5.504-7.86-3.578-13.248-9.899-16.812-17.625-1.868-5.309-2.314-10.29-2.335-15.893l-.022-3.92-.008-4.265-.02-4.521q-.028-7.406-.041-14.811l-.013-5.116q-.029-12.024-.041-24.048-.015-13.839-.077-27.676-.044-10.723-.048-21.446c-.002-4.26-.011-8.522-.036-12.783a1437 1437 0 0 1-.018-12.043q.001-2.196-.02-4.39c-.089-10.046.937-19.354 5.491-28.463" id="svg-layer-10" style="pointer-events: all;"/><path fill="#060707" d="M780 417c1.328 2 1.328 2 2.25 4l.953 2c2.775 6.965 2.04 14.558 2.047 21.938l.003 2.317c-.035 38.903-.035 38.903-9.753 50.808-5.16 3.998-9.094 4.573-15.5 3.937-3.07-.69-5.982-1.675-8.937-2.75l-2.379-.827c-4.845-1.702-9.641-3.508-14.348-5.564-20.226-7.44-39.813-1.462-58.719 6.653-6.297 2.59-12.172 3.66-18.742 1.425-6.422-4.327-9.556-9.046-11.232-16.618-2.31-11.925-2.992-23.723-2.959-35.84.004-2.44-.02-4.878-.045-7.317-.073-17.324-.073-17.324 4.947-24.396C659.187 406.938 673.436 405.57 688 404l3.723-.402c25.488-2.218 67.97-4.98 88.277 13.402m-112.062-6c-2.667 4.129-4.332 8.37-5.938 13l-.879 2.438c-2.412 6.897-3.281 13.363-3.324 20.68l-.017 2.347q-.014 2.459-.02 4.917c-.01 2.451-.04 4.901-.072 7.352-.076 11.352.692 22.405 4.312 33.266h2l1 4c2.332.219 2.332.219 5 0 1.45-1.406 1.45-1.406 2.688-3.5l1.527-2.492L676 490c1.572-2.549 3.162-5.086 4.75-7.625l1.285-2.068c3.408-5.473 6.946-10.85 10.55-16.195a232 232 0 0 0 6.352-9.925C701 451 701 451 704 449c2.177-.227 2.177-.227 4.668-.195l2.705.02 2.814.05 2.85.027q3.482.036 6.963.098l.905 1.86c1.248 2.439 2.74 4.546 4.345 6.765 2.403 3.386 4.649 6.794 6.75 10.375 2.584 4.401 5.45 8.535 8.406 12.691 2.539 3.677 4.683 7.546 6.735 11.516 1.168 2.111 2.263 3.982 3.859 5.793 3.125.625 3.125.625 6 0 4.647-3.098 5.456-7.388 6.63-12.728 1.232-7.563.952-15.353.891-22.991-.02-3.209 0-6.415.026-9.623.02-14.952-1.226-27.768-9.547-40.658h-2v-2l-3-.937-1.687-.528c-7.708-1.783-15.457-1.696-23.325-1.703l-3.773-.01q-3.942-.007-7.885-.007c-3.987 0-7.974-.02-11.96-.04l-7.694-.005-3.565-.022c-19.744.053-19.744.053-26.173 4.252" id="svg-layer-11" style="pointer-events: all;"/><path fill="#A5AAAE" d="m712.688 393.75 2.755-.003c53.54.04 53.54.04 70.432 15.503 9.006 9.811 9.497 23.298 9.438 35.938l-.013 3.697c-.235 19.232-.787 43.34-15.05 57.928-7.156 4.816-14.341 6.184-22.82 4.753-6.28-1.377-12.038-3.56-17.93-6.066-19.685-8.356-34.838-7.258-54.512.594a575 575 0 0 0-5.25 2.176c-8.812 3.699-16.78 5.48-25.988 1.98-8.442-3.791-12.14-8.79-15.75-17.25-1.41-4.619-2.261-9.232-3-14l-.621-3.84c-1.417-9.85-1.587-19.723-1.629-29.66l-.028-3.867c.044-13.217 1.566-24.92 11.278-34.633 19.508-13.517 45.92-13.233 68.688-13.25m-64.813 23.125c-4.64 5.518-5.183 12.198-5.176 19.164-.005.755-.01 1.51-.017 2.289-.011 2.432-.005 4.864.005 7.297l.005 2.508c.032 9.757.184 19.44 1.558 29.117.11.782.218 1.564.33 2.37 1.149 6.81 3.306 14.511 8.982 18.88l1.754 1.406c3.96 2.573 8.14 2.712 12.684 2.094 4.767-1.411 9.373-3.187 14-5q3.437-1.346 6.875-2.687l2.992-1.2c16.15-5.739 32.41-4.256 48.133 1.887q2.2.82 4.402 1.633 4.146 1.536 8.27 3.133c6.932 2.57 13.002 3.454 20.078.859 6.278-4.214 8.181-11.562 9.61-18.603.623-3.33 1.17-6.666 1.64-10.022l.563-3.934c.695-6.568.66-13.179.677-19.777.01-2.284.041-4.567.072-6.851.137-18.816.137-18.816-6.62-26.098-24.325-19.269-108.969-21.707-130.817 1.535" id="svg-layer-12" style="pointer-events: all;"/><path fill="#57666F" d="M492 457c4.446 4.065 7.488 8.543 10.688 13.625q1.727 2.703 3.46 5.402l1.874 2.922c3.163 4.88 6.408 9.705 9.648 14.535A1687 1687 0 0 1 537 522.938l2.05 3.194 3.54 5.547c1.243 2.046 2.34 4.18 3.41 6.321H439c5.542-9.975 5.542-9.975 8.688-14.062 3.253-4.38 6.205-8.86 9.062-13.5 5.1-8.279 10.473-16.36 15.898-24.427 1.834-2.728 3.656-5.463 5.477-8.199l6.586-9.878 1.402-2.103 2.74-4.11 1.24-1.862z" id="svg-layer-13" style="pointer-events: all;"/><path fill="#858889" d="M437 333h2c1.521 2.025 1.521 2.025 3.309 4.871l1.997 3.154 2.132 3.413q1.092 1.732 2.188 3.462 2.185 3.456 4.363 6.916c2.578 4.081 5.193 8.137 7.824 12.184l2.62 4.043 1.281 1.974q2.651 4.09 5.296 8.184a13740 13740 0 0 0 8.368 12.928c16.74 25.859 33.698 51.575 50.823 77.18q2.892 4.327 5.778 8.659 1.129 1.694 2.259 3.386 3.793 5.688 7.567 11.388c12.242 18.455 12.242 18.455 17.633 25.883 4.801 6.62 9.209 13.456 13.562 20.375-3.113 3.202-6.26 6.108-9.812 8.813l-2.395 1.832L562 553c-4.494-1.508-6.404-5.098-8.852-8.887l-1.39-2.103c-1.47-2.227-2.927-4.462-4.383-6.697q-1.434-2.183-2.871-4.362a3729 3729 0 0 1-5.713-8.7 1608 1608 0 0 0-7.99-12.052c-4.37-6.54-8.69-13.111-12.989-19.699l-2.183-3.342a15825 15825 0 0 1-10.777-16.525l-3.914-6.008-1.888-2.897a1581 1581 0 0 0-11.225-16.976 451 451 0 0 1-5.06-7.822 6056 6056 0 0 0-11.515-18.055l-2.111-3.3a3717 3717 0 0 0-13.425-20.833 296 296 0 0 1-2.365-3.703C452 389 452 389 450.153 386.615c-5.746-7.85-6.024-14.267-5.59-23.803q.053-2.02.095-4.04.124-4.888.342-9.772l-6-2z" id="svg-layer-14" style="pointer-events: all;"/><path fill="#3A444A" d="M732.723 518.5c2.054 1.353 3.558 2.766 5.277 4.5l2.063.313L742 524c1 2.375 1 2.375 2 6l1.008 2.246c3.722 8.55 3.377 16.621 2.992 25.754h-2l1 3h-2c-1.748 4.304-3.377 8.648-5 13h-3a128 128 0 0 0-5.562 3.375c-7.775 4.636-14.56 5.972-23.528 5.598C706 583 706 583 703 584l-1-3c-1.709-.756-3.421-1.505-5.16-2.187-7.994-3.53-13.007-11.34-16.84-18.813-2.038-5.43-2.495-11.258-3-17h2l.125-3.375c.935-7.326 5.157-13.464 10.75-18.125l1.805-1.344L693 519v-2h2l1-2 2 1a192 192 0 0 0 6.375-2.625c10.77-4.18 18.758-.282 28.348 5.125M686 573l3 1-2 2z" id="svg-layer-15" style="pointer-events: all;"/><path fill="#ACB1B4" d="M564 229c21.267 1.267 21.267 1.267 24 4-.178 12.229-2.1 24.56-3.469 36.7l-.728 6.51q-.76 6.775-1.523 13.551-.979 8.692-1.947 17.385-.748 6.7-1.503 13.4-.36 3.208-.718 6.416-.498 4.463-1.005 8.923l-.296 2.678-.28 2.45-.239 2.126C576 345 576 345 575 348h-25c-1.243-2.486-.96-3.667-.64-6.414l.318-2.812.37-3.095.374-3.253c.412-3.564.833-7.128 1.254-10.692l.864-7.414a10677 10677 0 0 1 1.829-15.566 7096 7096 0 0 0 1.871-15.987q1.117-9.642 2.253-19.283.432-3.677.857-7.354.6-5.146 1.214-10.291l.351-3.07c.583-4.823 1.299-9.21 3.085-13.769M421 228c2.875 2.875 2.738 6.074 3.19 9.953l.31 2.495c.34 2.743.669 5.487.996 8.232l.71 5.776q.747 6.09 1.48 12.182.925 7.68 1.869 15.356c2.201 17.932 4.372 35.869 6.355 53.826l.395 3.485.332 3.094.29 2.65L437 347c-1 1-1 1-3.408 1.114l-3.158-.016-3.409-.01-3.587-.026-3.6-.013A2999 2999 0 0 1 411 348c-2.728-20.176-5.113-40.393-7.499-60.612q-.866-7.337-1.745-14.675-.68-5.707-1.351-11.414-.32-2.707-.645-5.415a2614 2614 0 0 1-.89-7.538l-.269-2.212c-.546-4.741-.676-9.36-.601-14.134 3.788-.727 7.581-1.428 11.375-2.125l3.273-.629 3.125-.566 2.889-.54z" id="svg-layer-16" style="pointer-events: all;"/><path fill="#868889" d="M479 437h2a124 124 0 0 1 5.188 7.188l1.443 2.04 1.35 2.002 1.246 1.825c1.063 2.674.513 4.188-.227 6.945-1.127 2.086-1.127 2.086-2.553 4.166l-1.624 2.394-1.772 2.561-1.833 2.692q-1.94 2.847-3.889 5.686c-3.356 4.89-6.688 9.798-10.02 14.704l-1.965 2.89c-4.612 6.79-9.112 13.636-13.469 20.594a526 526 0 0 1-15.565 23.434 436 436 0 0 0-4.072 5.973L430.563 546l-1.216 1.838C428.19 549.5 428.19 549.5 426 552c-4.93 0-5.979-1.208-9.687-4.312l-2.95-2.426C411 543 411 543 410 540c1.17-2.229 1.17-2.229 3.04-4.906l2.153-3.126 1.192-1.7a761 761 0 0 0 3.778-5.447q2.084-3.03 4.174-6.054c5.787-8.373 11.48-16.81 17.171-25.25q2.801-4.15 5.605-8.3c5.842-8.656 11.647-17.334 17.344-26.088l1.5-2.302q3.454-5.305 6.875-10.635l2.398-3.704 2.075-3.233z" id="svg-layer-17" style="pointer-events: all;"/><path fill="#ABB0B3" d="m415.225 388.886 6.039.026 3.298.026L436 389q.034 18.554.052 37.108.007 8.613.023 17.228.016 8.306.02 16.612.003 3.176.01 6.353.01 4.433.009 8.865l.01 2.68c-.01 6.04-.01 6.04-1.124 7.154-3.472.251-6.957.185-10.437.188l-2.971.037-2.838.005-2.615.013C414 485 414 485 412 483a120 120 0 0 1-.243-8.748l-.006-2.745c-.003-3.004.007-6.007.019-9.01v-6.24q.003-6.544.024-13.087.024-8.408.02-16.814.001-6.443.013-12.886.005-3.101.006-6.202.004-4.324.022-8.65l-.002-2.614c.038-6.947.038-6.947 3.372-7.118" id="svg-layer-18" style="pointer-events: all;"/><path fill="#ADB2B5" d="M550 389h23c2.084 2.084 1.157 6.636 1.161 9.511l.015 2.705q.021 4.45.027 8.901l.017 6.162q.015 6.47.02 12.938c.006 5.534.03 11.068.058 16.602.019 4.245.024 8.49.026 12.735q.004 3.06.024 6.121c.017 2.852.015 5.703.008 8.555l.028 2.57c-.041 5.778-.041 5.778-1.779 7.918-2.098 1.676-3.32 1.643-5.984 1.61l-2.54-.015-2.644-.063-2.654-.016c-6.474-.08-6.474-.08-8.783-1.234z" id="svg-layer-19" style="pointer-events: all;"/><path fill="#526069" d="m464 606.87 2.036-.005q3.305-.004 6.609.002l4.608-.003q4.812-.002 9.625.006 6.18.006 12.361-.004 4.75-.005 9.5 0 2.28 0 4.56-.002 3.174-.003 6.349.007l3.653.002C526 607 526 607 527 608v23h-67v-2h-2v2h-7v-23c4.593-.765 8.407-1.126 13-1.13" id="svg-layer-20" style="pointer-events: all;"/><path fill="#57666F" d="m712.375 450.813 2.21-.043c4.138.394 7.356 1.16 10.33 4.164l1.71 2.503 2.035 2.965c4.416 6.735 8.699 13.556 12.96 20.39 1.86 2.976 3.743 5.936 5.63 8.896l1.64 2.574L750 494c-3.854 1.285-4.813.425-8.437-1.25-18.566-7.953-36.817-7.915-55.606-.559-1.68.696-3.35 1.416-5.004 2.172C679 495 679 495 676 494l1.003-1.534a8420 8420 0 0 0 4.747-7.279l1.763-2.704q6.93-10.662 13.615-21.476l1.411-2.26 1.225-1.98c1.74-2.488 3.248-4.418 6.15-5.443a44 44 0 0 1 6.461-.512" id="svg-layer-21" style="pointer-events: all;"/><path fill="#848788" d="M547 333h1l-1 14-5 2 .13 2.221c.859 18.779-1.893 30.52-13.347 45.435-2.494 3.279-4.726 6.705-6.97 10.156q-1.172 1.749-2.348 3.493C514.883 417.14 510.455 424.08 506 431c-3.076-2.986-5.909-5.926-8.375-9.437l-1.586-2.184c-1.49-3.414-1.181-4.798-.039-8.379 1.966-3.554 4.223-6.89 6.5-10.25l4.11-6.18 2.177-3.253c3.694-5.538 7.325-11.117 10.963-16.692q2.146-3.282 4.293-6.562a3248 3248 0 0 0 10.02-15.438c3.17-4.907 6.346-9.81 9.562-14.687l1.914-2.91z" id="svg-layer-22" style="pointer-events: all;"/><path fill="#F5F5F5" d="m452.059 580.707 3.467.013c3.638.017 7.274.054 10.911.092q3.71.024 7.42.042A3614 3614 0 0 1 492 581v9h-10v8h-7v6l-3.317.028c-4.073.04-8.144.106-12.216.18q-2.64.042-5.282.063a642 642 0 0 0-7.603.12l-2.374.003c-4.966.133-7.599.889-11.208 4.606-1.147 2.293-1.197 3.8-1.316 6.352l-.127 2.578-.12 2.695-.13 2.719q-.16 3.327-.307 6.656h-4q-.075-8.008-.11-16.016-.016-2.723-.04-5.447c-.025-2.611-.036-5.222-.045-7.834l-.032-2.456c-.001-6.963-.001-6.963 2.227-10.247h2v-2h2v-2c6.35-3.426 11.94-3.393 19.059-3.293" id="svg-layer-23" style="pointer-events: all;"/><path fill="#55636C" d="M451 663q14.838-.034 29.676-.052 6.888-.007 13.778-.023 6.642-.016 13.285-.02 2.54-.003 5.08-.01a2183 2183 0 0 1 7.09-.009l2.144-.01c4.833.01 4.833.01 5.947 1.124.073 2.863.092 5.7.063 8.563l-.014 2.443q-.02 2.997-.049 5.994l-1.73-.007q-10.854-.04-21.707-.056l-3.468-.005c-13.872-.017-27.712.009-41.565.8-6.355.356-6.355.356-8.53-.732a99 99 0 0 1-.687-7.937l-.143-2.249c-.307-5.54-.307-5.54.83-7.814" id="svg-layer-24" style="pointer-events: all;"/><path fill="#868889" d="M544 351h36v36h-36z" id="svg-layer-25" style="pointer-events: all;"/><path fill="#848789" d="M406 351h36v36h-36z" id="svg-layer-26" style="pointer-events: all;"/><path fill="#3D484F" d="m713.188 516.938 3.855.027L720 517l1 4v-3c9.918 2.542 14.399 5.498 19.668 14.367 3.905 7.718 4.967 16.668 2.656 25.098-.824 1.91-.824 1.91-2.324 4.535-2-2-2-2-2.125-4.625L739 555l-5-1-1 5 1.875.75C737 561 737 561 739 565l-6 7-1-2c-7.917-5.278-7.917-5.278-12.812-4.625L717 566c1.48-2.962 3.935-3.435 6.895-4.707 2.86-1.756 4.322-3.44 6.105-6.293.531-3.594.531-3.594.5-7.5l.031-3.906c-.601-4.068-1.806-5.61-4.531-8.594v-2l-2.187-.312c-3.329-.814-5.26-1.354-7.813-3.688-.432-3.04-.288-5.95 0-9h-5l-1 5h2v5l-1.793.48c-6.233 1.84-10.133 3.964-13.52 9.77-1.314 5.257-1.163 10.544.313 15.75l-4-1-1-4-2 3h-2v6h-3c-3.495-8.01-3.768-15.588-.895-23.828 1.071-2.6 2.18-4.935 3.895-7.172h2v-3l1.938-.312L694 525l1-3c1.742-1.133 1.742-1.133 3.875-2.125l2.117-1.008c4.252-1.836 7.584-1.972 12.196-1.93" id="svg-layer-27" style="pointer-events: all;"/><path fill="#55646D" d="M553 615q.038 9.629.055 19.257.008 3.266.02 6.53c.082 20.874.082 20.874-.391 29.99l-.174 3.41c-.561 3.095-1.344 4.56-3.51 6.813-4.14 1.495-7.731.674-12 0-2-.036-4-.049-6 0v-4l1.938.563L535 678l1-1c3.043-.073 6.074.004 9.117.063C548 677 548 677 551 676v-3l-1.728.016q-3.855.029-7.71.047l-2.72.025-2.588.01-2.396.016C532 673 532 673 531 672a94 94 0 0 1-.114-5.254v-3.397l.016-3.697.005-3.762q.007-4.959.024-9.918.014-5.058.02-10.115.017-9.928.049-19.857l2.353.512c3.396.626 6.188.105 9.561-.453C545 616 545 616 548 618v-2c2-1 2-1 5-1" id="svg-layer-28" style="pointer-events: all;"/><path fill="#48555C" d="M738 515c8.026 5.217 12.339 12.85 14.813 22.008.917 4.676 1.445 9.216 1.187 13.992l-5 1h5c-1.692 8.333-4.638 15.32-10 22h-2l-1 3c-9.14 8.227-17.913 11.582-30.11 11.223-7.303-.563-12.717-2.283-18.89-6.223v-3h-4l-3-2v-3l-2-1c-3.249-2.853-4.968-5.55-6.687-9.5l-1.262-2.844c-3.454-8.73-3.308-19.362-.227-28.21 3.498-7.275 8.544-13.82 15.176-18.446l3-1 2-2c16.165-6.438 28.12-4.319 43 4m-37.84-.066L697 516l-2-1v2l-2 1c-6.555 6.008-11.428 12.426-14 21v4l-2 1c.714 10.882 4.054 20.467 11 29l2 1c.35.3.35.3 2.125 1.813 2.955 2.248 5.84 3.728 9.203 5.257C703 582 703 582 704 584l2.938-.437a103 103 0 0 1 6.214-.747c9.813-.845 16.913-4.02 24.848-9.816l2 1 1.375-3.687.832-2.204c.63-1.677 1.246-3.361 1.856-5.047C745 561 745 561 747 560l-1-2 2-1c.45-9.968.091-17.72-4-27l-.937-3.562C742 524 742 524 739.707 523.03L737 522a102 102 0 0 1-4.375-2.937c-3.757-2.549-7.325-4.527-11.625-6.063l-1.906-.797c-6.853-2.301-12.509.264-18.934 2.73M686 573l1 3 2-2z" id="svg-layer-29" style="pointer-events: all;"/><path fill="#E5E7E8" d="M220 495h114v10H220z" id="svg-layer-30" style="pointer-events: all;"/><path fill="#F6F7F7" d="M274.376 328.273c2.818.04 5.632.02 8.45-.005 9.395.004 17.235.103 25.174 5.732l1.91 1.143c1.715 1.045 1.715 1.045 4.09 2.857v2l5 2v2h-84c0-2 0-2 1.293-3.516 11.677-10.69 22.855-12.452 38.083-12.211" id="svg-layer-31" style="pointer-events: all;"/><path fill="#A7ACB0" d="M272.816 265.902q2.374.01 4.747.036l2.443.013q2.997.02 5.994.049c1.458 4.373 1.06 8.395 1 13h13q.039 3.468.063 6.938l.035 3.902C300 293 300 293 299 294a153 153 0 0 1-6.562.063l-3.63-.028L286 294v10h-18v-11h-7q-.04-2.97-.062-5.937l-.036-3.34C261 281 261 281 262 280c2-.04 4-.043 6 0l-.035-2.809c-.01-1.197-.018-2.395-.027-3.628l-.036-3.622c.147-4.415.33-3.921 4.914-4.039" id="svg-layer-32" style="pointer-events: all;"/><path fill="#010101" d="M732.723 518.5c2.054 1.353 3.558 2.766 5.277 4.5l2.063.313L742 524c1 2.375 1 2.375 2 6l1.008 2.246c3.722 8.55 3.377 16.621 2.992 25.754h-2l1 3h-2c-1.748 4.304-3.377 8.648-5 13h-3a128 128 0 0 0-5.562 3.375c-7.775 4.636-14.56 5.972-23.528 5.598C706 583 706 583 703 584l-1-3c-1.709-.756-3.421-1.505-5.16-2.187-7.994-3.53-13.007-11.34-16.84-18.813-2.038-5.43-2.495-11.258-3-17h2l.125-3.375c.935-7.326 5.157-13.464 10.75-18.125l1.805-1.344L693 519v-2h2l1-2 2 1a192 192 0 0 0 6.375-2.625c10.77-4.18 18.758-.282 28.348 5.125M694 524l-2 2h-2v3l-3 1c-4.379 6.492-5.717 14.853-4.648 22.523 2.309 8.82 7.488 16.27 14.648 21.79 8.128 4.572 17.695 5.275 26.73 3 6.012-2.484 11.755-6.283 14.707-12.188L739 563a91 91 0 0 0-4-4h-2l1-5 5 1v6l2 1c4.17-7.298 4.31-15.806 2.273-23.883-2.911-7.74-6.815-14.169-14.273-18.117-2.66-.842-5.26-1.433-8-2v3l-1-4c-9.966-.51-18.813-.713-26 7m-8 49 3 1-2 2z" id="svg-layer-33" style="pointer-events: all;"/><path fill="#FEFEFE" d="M220 435h113v8q-21.878.034-43.757.052-10.158.007-20.316.023-9.794.016-19.588.02-3.745.003-7.491.01-5.227.01-10.453.009l-3.163.01-2.86-.004-2.5.003C221 443 221 443 220 442z" id="svg-layer-34" style="pointer-events: all;"/><path fill="#57666F" d="M590 237c4.135.47 7.099.884 10 4 1.2 4.728.806 8.829-.032 13.56l-.37 2.22c-.403 2.41-.82 4.819-1.239 7.228l-.857 5.067q-.9 5.31-1.816 10.616-1.164 6.756-2.303 13.516-.886 5.235-1.781 10.47-.425 2.489-.847 4.978c-4.418 26.008-4.418 26.008-7.755 29.345h-4c.765-10.231 1.89-20.415 3.031-30.61l.594-5.339 1.24-11.124q.795-7.104 1.584-14.208l1.52-13.64c.095-.858.19-1.716.29-2.6q.407-3.662.817-7.326l.24-2.15A976 976 0 0 1 590 237M396 238q2.157 18.228 4.303 36.457.995 8.466 1.997 16.93.967 8.168 1.926 16.339.366 3.115.737 6.231.518 4.366 1.027 8.733l.312 2.598c.494 4.266.81 8.408.698 12.712l-5-1c-2.246-6.186-3.77-12.255-4.867-18.738l-.485-2.761q-.769-4.406-1.523-8.813l-1.06-6.086q-1.052-6.023-2.096-12.048-1.253-7.2-2.567-14.39l-.697-3.835q-.62-3.39-1.246-6.777c-3.423-18.895-3.423-18.895-.459-23.552 3.167-3.276 4.74-3.028 9-2M762 412c6.422.273 11.261 2.62 16 7 10.284 17.14 5.35 47.263 1.344 66.082-1.275 4.733-2.693 8.481-6.344 11.918-2.562 1.375-2.562 1.375-5 2l-3-1 .805-1.887c8.411-22.01 8.648-54.246-.43-76.113a489 489 0 0 0-2.375-5z" id="svg-layer-35" style="pointer-events: all;"/><path fill="#49565D" d="M447 608c1.444 24.687.704 49.3 0 74-7.75-.805-7.75-.805-10-2.562L436 678l3-2h-4c-.143-8.571-.143-8.571 1-12l-2-1c-.03-3.625-.047-7.25-.062-10.875l-.026-3.07c-.018-5.67.196-11.185.92-16.812.238-3.186-.174-6.19-.676-9.333C434 621 434 621 435 618l-1-3c.375-2.5.375-2.5 2-5 7.543-3.729 7.543-3.729 11-2" id="svg-layer-36" style="pointer-events: all;"/><path fill="#4D5A62" d="m718.625 353.438 3.04.308L724 354c1.882 5.647 1 12.078 1 18h-2v2h2v16h-23l-.625-9.312-.213-2.924-.139-2.315-.158-2.364C701 371 701 371 703 368l-1-1c-.072-2.02-.084-4.042-.062-6.062l.027-3.348L702 355l1.898-.184 2.477-.253 2.46-.247c7.588-1.109 7.588-1.109 9.79-.878" id="svg-layer-37" style="pointer-events: all;"/><path fill="#57666F" d="M664 412a370 370 0 0 1-3.219 9.383c-8.71 25.442-6.369 51.951.219 77.617-4.733-1.352-7.331-3.992-10-8-6.775-17.767-7.523-40.935-5.25-59.687l.422-3.762c1.427-6.118 4.703-10.051 9.828-13.551 2.985-1.421 4.677-2 8-2M556.563 231.938 560 232c-.706 10.458-1.812 20.85-2.996 31.262l-.29 2.564q-.759 6.686-1.525 13.37-.787 6.9-1.556 13.803-.598 5.325-1.213 10.647-.29 2.547-.572 5.095c-.262 2.36-.535 4.72-.81 7.078l-.23 2.127c-.58 4.826-.58 4.826-2.808 7.054-4.777-3.307-4.777-3.307-5.697-6.167-.38-3.56-.093-6.94.286-10.481l.226-2.284c.248-2.482.507-4.962.767-7.443l.528-5.189q.555-5.433 1.123-10.864c.484-4.636.955-9.273 1.422-13.91.36-3.572.729-7.142 1.099-10.712q.264-2.565.522-5.129.365-3.587.747-7.173l.21-2.131c1.25-11.473 1.25-11.473 7.33-11.58M426 232c5.48-.365 5.48-.365 7.63 1.147 1.863 2.52 2.058 4.586 2.463 7.685l.473 3.532L437 248l.4 3.344c.391 3.445.754 6.891 1.108 10.34l.395 3.812q.409 3.96.811 7.923.512 5.014 1.043 10.027c.34 3.245.67 6.491 1 9.738l.38 3.568c.596 5.968 1.016 11.927 1.19 17.924l.107 3.454c-.434 2.87-.434 2.87-2.33 4.765C439 324 439 324 437 324c-2.042-8.956-3.08-18.028-4.164-27.137l-.597-4.951q-.621-5.162-1.235-10.325-.787-6.598-1.587-13.194-.617-5.102-1.225-10.205-.292-2.432-.586-4.864-.411-3.4-.812-6.803l-.466-3.9c-.323-3.562-.387-7.045-.328-10.621" id="svg-layer-38" style="pointer-events: all;"/><path fill="#4A575F" d="m723 502-1 2-2.422-.105c-14.493-.358-26.325 2.674-36.914 12.714C681 518 681 518 679 518l-.844 2.21c-1.074 2.591-2.309 4.96-3.656 7.415-2.345 4.594-3.367 8.837-4.043 13.93-.461 2.468-1.228 4.27-2.457 6.445-4.214-2.883-5.76-5.043-7-10h-2c-9.149-17.149-9.149-17.149-10-26 4.669.908 4.669.908 6.965 1.547 10.29 2.29 20.755-.2 29.91-4.985 12.382-6.394 23.484-7.08 37.125-6.562" id="svg-layer-39" style="pointer-events: all;"/><path fill="#515F67" d="M699 372v15l-2 1-2-2-1 1 4 2v3l-3.77.184c-5.078.252-10.154.53-15.23.816l-3.43.184c-4.94.342-9.017 1.12-13.578 3.05-3.548 1.364-7.271 2.034-10.992 2.766.813-1.937.813-1.937 2-4l3-1v-3c1.875-2.187 1.875-2.187 4-4h2l1-3c9.96-7.421 23.544-12 36-12" id="svg-layer-40" style="pointer-events: all;"/><path fill="#4C5961" d="m728 372 9 1v2l2.313-.625C742 374 742 374 745 376q2.496.52 5 1c9.985 3.759 17.552 10.638 24 19l-1 2q-4.407-.966-8.812-1.937l-2.526-.553-2.432-.537-2.237-.492C755 394 755 394 752 393c-2.33-.227-4.664-.41-7-.562l-3.75-.254A111 111 0 0 0 735 392a299 299 0 0 1-6-1q-.29-2.905-.562-5.812l-.317-3.27C728 379 728 379 729 376l1-1-2-1zM718 534c3.987 2.067 6.616 4.215 9 8 .9 4.913.51 8.962-1.687 13.438-3.623 4.014-6.277 5.715-11.688 6-4.908-.18-7.685-1.523-11.625-4.438-3.019-3.506-3.488-6.595-3.277-11.082.641-4.438 3.077-6.968 6.402-9.73 4.16-2.78 8.007-3.154 12.875-2.188M723 503c5.87.986 10.709 2.186 16 5 4.189 1.561 8.45 2.844 12.75 4.063 3.25.937 3.25.937 5.512 2.046 3.579 1.164 6.104.691 9.8.078l3.66-.582c2.464-.455 4.863-.949 7.278-1.605-.49 6.613-2.166 12.011-5 18l-.953 2.191c-1.183 2.184-1.986 3.403-4.047 4.809-4.065.58-7.925.41-12 0l-.734-1.977c-1.979-5.159-4.105-9.508-7.266-14.023v-2l-1.766-.812c-2.262-1.203-4.04-2.526-5.984-4.188l-1.86-1.562C737 511 737 511 737 509l-1.937-.25c-4.268-1.045-8.094-2.89-12.063-4.75z" id="svg-layer-41" style="pointer-events: all;"/><path fill="#EBECEC" d="M544 351h36v36h-36zm2 6v23q6.381.036 12.762.055 2.173.008 4.345.02c2.078.013 4.155.018 6.233.023l3.793.016C576 380 576 380 577 379c.087-1.635.107-3.273.098-4.91l-.008-2.7-.028-3.452L577 357z" id="svg-layer-42" style="pointer-events: all;"/><path fill="#E8EAEA" d="M406 351h36v36h-36zm3 6-.062 10.938-.028 3.452-.008 2.7-.016 2.777C409 379 409 379 410 380c2.219.088 4.44.107 6.66.098l2.014-.005c2.13-.005 4.259-.018 6.389-.03q2.16-.009 4.322-.014c3.538-.01 7.077-.03 10.615-.049v-23z" id="svg-layer-43" style="pointer-events: all;"/><path fill="#515F67" d="M451 643h3l1 1c3.215-.1 6.414-.258 9.625-.437 13.478-.662 26.946-.65 40.438-.625l3.272.005q9.332.019 18.665.057v7c-46.744 1.719-46.744 1.719-63.215.156-4.32-.242-8.513.217-12.785.844a177 177 0 0 1-1-7z" id="svg-layer-44" style="pointer-events: all;"/><path fill="#F6D346" d="M254 315h46v11h-46z" id="svg-layer-45" style="pointer-events: all;"/><path fill="#000101" d="M711 520h5l-.098 1.828c.039 2.635.208 4.683 1.098 7.172 1.895 1.207 1.895 1.207 4.25 2.063 4.398 1.606 6.655 3.11 8.953 7.234 1.776 6.025 1.136 12.494.797 18.703h-2l-2.25 2.313c-4.603 4.498-9.672 6.107-15.75 7.687v-2a421 421 0 0 0-4.375-1.562l-2.46-.88C702 562 702 562 700 563v-2h-2c-1.625-2.5-1.625-2.5-3-5h2l-.984-1.73c-2.115-4.727-1.152-9.93-.641-14.957 2.44-4.976 6.568-7.243 11.625-9.313 2.824-.16 2.824-.16 5 0v-5h-2zm-11 21c-1.76 5.282-1.796 9.377.625 14.313 3.154 3.569 5.792 5.358 10.586 5.968 4.727.189 8.073-.096 11.789-3.281 3.902-4.324 4.687-7.943 4.457-13.594-.763-4.015-2.448-5.67-5.457-8.406-8.518-5-15.58-1.693-22 5" id="svg-layer-46" style="pointer-events: all;"/><path fill="#4F5D66" d="M451 634c15.451 0 15.451 0 22.688.5l2.126.145q2.594.176 5.186.355v-1h47v5h-9v1h-68c-1-4-1-4 0-6" id="svg-layer-47" style="pointer-events: all;"/><path fill="#A6AAAD" d="m694 587 5.063 1.5c10.725 2.672 21.27 2.126 31.937-.5v13h-37z" id="svg-layer-48" style="pointer-events: all;"/><path fill="#526068" d="M788.848 526.902 795 527v13h-2l2 3c.227 2.771.227 2.771.195 6.094l-.02 3.62-.05 3.786-.027 3.785q-.027 3.473-.066 6.944A504 504 0 0 0 795 573h-9q-.037-9.585-.055-19.171-.008-3.264-.02-6.527c-.013-3.12-.018-6.24-.023-9.36l-.015-2.968v-2.73l-.007-2.415c.164-2.503.462-2.794 2.968-2.927" id="svg-layer-49" style="pointer-events: all;"/><path fill="#4F5D65" d="m730 537 2 4h12c.554 14.781.554 14.781-3 21-2-2-2-2-2.125-4.625L739 555l-5-1-1 5 1.875.75C737 561 737 561 739 565l-6 7-1-2c-7.917-5.278-7.917-5.278-12.812-4.625L717 566c1.48-2.962 3.935-3.435 6.895-4.707 2.868-1.761 4.33-3.42 6.105-6.293.39-3.664.39-3.664.25-7.625l-.11-3.977L730 540z" id="svg-layer-50" style="pointer-events: all;"/><path fill="#DBC04F" d="m395.873 639.757 3.63.013 3.933.005 2.05.02c2.072.017 4.143.02 6.215.02 10.159.045 10.159.045 11.299 1.185.072 1.52.084 3.042.063 4.563l-.028 2.503L423 650q-6.353.074-12.708.11-2.161.015-4.324.04c-2.07.025-4.14.036-6.21.045l-3.777.032C393 650 393 650 391 648c-.25-3-.25-3 0-6 2-2 2-2 4.873-2.243" id="svg-layer-51" style="pointer-events: all;"/><path fill="#4D5A62" d="M260 250h35c2.353 4.707 2.171 6.87 2 12h-4v-9h-4v10l-5-1v-9h-3l-1 10h-4l-.367-2.152-.508-2.786-.492-2.777L274 253l-2-1v10h-5l-.437-2.812C266 256 266 256 265 253h-2v9h-4c-1.016-5.183-1.047-6.882 1-12" id="svg-layer-52" style="pointer-events: all;"/><path fill="#101213" d="M409 357h31v23q-6.381.036-12.762.055-2.173.008-4.345.02c-2.078.013-4.155.018-6.233.023l-3.793.016C410 380 410 380 409 379a83 83 0 0 1-.098-4.91l.008-2.7.027-3.452zm3 3v17h24v-17z" id="svg-layer-53" style="pointer-events: all;"/><path fill="#101314" d="M546 357h31l.063 10.938.027 3.452.008 2.7.016 2.777C577 379 577 379 576 380c-2.219.088-4.44.107-6.66.098l-2.014-.005c-2.13-.005-4.259-.018-6.389-.03q-2.16-.009-4.322-.014c-3.538-.01-7.077-.03-10.615-.049zm3 5a94 94 0 0 0-.125 7.625L549 377h26l.063-7.937.027-2.504A179 179 0 0 0 575 361c-2.476-2.476-9.109-1.186-12.437-1.187l-3.26-.038-3.112-.005-2.868-.013C551 360 551 360 549 362" id="svg-layer-54" style="pointer-events: all;"/><path fill="#55636C" d="m451 655 2 1h2v-1h72v4h-76z" id="svg-layer-55" style="pointer-events: all;"/><path fill="#A4A9AD" d="M757 540c8.496-.098 8.496-.098 11 0 1 1 1 1 1.114 2.95l-.016 2.523-.01 2.724-.025 2.865-.014 2.877q-.02 3.531-.049 7.061h-14z" id="svg-layer-56" style="pointer-events: all;"/><path fill="#505E66" d="M708 507c14.019-.245 26.017 3.526 36.508 13.32 1.83 2.06 2.843 4 3.492 6.68l-2 1c-2.125-.937-2.125-.937-4-2v-2l-2.227-.32c-2.985-.732-4.676-1.761-7.148-3.555-5.936-4.094-11.667-6.314-18.707-7.695C712 512 712 512 710 511v-2z" id="svg-layer-57" style="pointer-events: all;"/><path fill="#91999E" d="m556 629 5 1v29h-5c-1.83-1.83-1.13-4.732-1.133-7.187l-.004-3.805.007-1.991q.005-3.013-.007-6.025l.004-3.804.004-3.52C555 630 555 630 556 629" id="svg-layer-58" style="pointer-events: all;"/><path fill="#47535B" d="M712 508c-.594 2.355-.594 2.355-2 5-2.969 1.363-2.969 1.363-6.5 2.313l-3.531.988C697 517 697 517 695 517c-3.688 3.39-6.846 7.125-10 11l-4-2c.487-4.277 1.578-6.02 4.875-8.75l2.117-1.797C690 514 690 514 693 513l2-2c5.9-2.69 10.551-3.403 17-3" id="svg-layer-59" style="pointer-events: all;"/><path fill="#4E5B63" d="m693 539 3 1-.035 2.484-.028 3.266-.035 3.234c.083 2.55.352 4.595 1.098 7.016l-4-1-1-4-2 3h-2v6h-3c-1.648-3.664-2.336-6.812-2.625-10.812l-.227-2.958L682 544h3l1.438-1.5C688 541 688 541 692 541z" id="svg-layer-60" style="pointer-events: all;"/><path fill="#FEFEFE" d="M702 612h21v8h-21z" id="svg-layer-61" style="pointer-events: all;"/><path fill="#828C92" d="M20 931h5l1 5v-5h3c.37 5.415.37 5.415-1.5 8.375L26 941l3 2v7H14v-3h5l1-5 3-1v-2l-4-2z" id="svg-layer-62" style="pointer-events: all;"/><path fill="#A8AFB2" d="m19 879 5 3 5-3c-.875 3.875-.875 3.875-2 5l2 1q.079 2.438.125 4.875l.07 2.742C29 895 29 895 27 897c-3 .313-3 .313-6 0-2.29-3.435-2.178-4.985-2-9h-5v-3l7-1-2-2z" id="svg-layer-63" style="pointer-events: all;"/><path fill="#DEC34D" d="M262 307h30v5h-30z" id="svg-layer-64" style="pointer-events: all;"/><path fill="#999EA2" d="M426 632h5v25h-6q-.042-5.97-.062-11.937l-.026-3.444-.01-3.271-.016-3.031C425 633 425 633 426 632" id="svg-layer-65" style="pointer-events: all;"/><path fill="#8C949A" d="m778 536 5 1v28h-5z" id="svg-layer-66" style="pointer-events: all;"/><path d="m665 425 3 1v42h-2c-.996-4.953-1.131-9.655-1.098-14.68l.005-2.463c.005-2.577.018-5.155.03-7.732q.009-2.632.014-5.266.017-6.43.049-12.859" id="svg-layer-67" style="pointer-events: all;"/><path fill="#92989D" d="m701.684 603.886 3.539.016 3.818.01 4.021.025q2.018.009 4.034.014 4.952.018 9.904.049v4l-28 1-1-4c1-1 1-1 3.684-1.114" id="svg-layer-68" style="pointer-events: all;"/><path fill="#A2A8AC" d="M772 537h4v28h-4z" id="svg-layer-69" style="pointer-events: all;"/><path fill="#8F989D" d="M488.816 591.902q2.374.01 4.747.035l2.443.014q2.997.02 5.994.049a88 88 0 0 1 1 5c-1 1-1 1-4.816 1.098a763 763 0 0 1-4.747-.035l-2.443-.014q-2.997-.02-5.994-.049a88 88 0 0 1-1-5c1-1 1-1 4.816-1.098" id="svg-layer-70" style="pointer-events: all;"/><path fill="#6C767D" d="M16 849h13v3l-9 1 1 3 4-1v2h3v2l-2 1 2 2-5 1v-2l-4 1v-2l-3-1h3v-2h-3l1-3z" id="svg-layer-71" style="pointer-events: all;"/><path fill="#7E898E" d="m20.094 836.734 2.406.016 2.406-.016C27 837 27 837 29 839c.25 2.5.25 2.5 0 5-2 2-2 2-4.383 2.195l-2.742-.07-2.758-.055L17 846c-.625-3.375-.625-3.375-1-7 2-2 2-2 4.094-2.266M20.094 825.734l2.406.016 2.406-.016C27 826 27 826 29 828c.25 2.5.25 2.5 0 5-2 2-2 2-4.094 2.266l-2.406-.016-2.406.016C18 835 18 835 16 833c-.25-2.5-.25-2.5 0-5 2-2 2-2 4.094-2.266M20.094 804.734l2.406.016 2.406-.016C27 805 27 805 29 807c.25 2.5.25 2.5 0 5-2 2-2 2-4.383 2.195l-2.742-.07-2.758-.055L17 814c-.625-3.375-.625-3.375-1-7 2-2 2-2 4.094-2.266" id="svg-layer-72" style="pointer-events: all;"/><path fill="#788288" d="M29 973v3h-3v6h3v3c-4.836-.99-9.476-1.957-14-4v-4q2.654-1.008 5.313-2l2.988-1.125C26 973 26 973 29 973" id="svg-layer-73" style="pointer-events: all;"/><path fill="#7D868C" d="M14 963h15v7c-2 2-2 2-5 2.313L21 972c-2-3-2-3-2-6h-5z" id="svg-layer-74" style="pointer-events: all;"/><path fill="#949BA0" d="M564 633h4v22l-4 1c-.82-5.008-1.135-9.784-1.125-14.875l-.008-3.992C563 634 563 634 564 633" id="svg-layer-75" style="pointer-events: all;"/><path fill="#526069" d="m708.547 501.902 2.558.01 2.645.026L723 502l-1 2-2.422-.105C705.503 503.548 694.428 507 683 515l-2-3c3.088-3.404 6.694-4.613 10.938-6.125.716-.264 1.432-.529 2.17-.8 4.886-1.785 9.186-3.208 14.439-3.173" id="svg-layer-76" style="pointer-events: all;"/><path fill="#4C5961" d="M531 608q4.406-.118 8.813-.187l2.525-.077 2.432-.029 2.237-.048c2.515.43 3.387 1.416 4.993 3.341l-1 3-2-2v1h-18z" id="svg-layer-77" style="pointer-events: all;"/><path fill="#FDFEFD" d="M478 601h31v3h-31z" id="svg-layer-78" style="pointer-events: all;"/><path fill="#90979C" d="m723 624-1 4h-19v-4c5.574-2.787 14.014-1.064 20 0" id="svg-layer-79" style="pointer-events: all;"/><path fill="#4D5A62" d="m310 279 2 1 2-1c8.206-.265 8.206-.265 12 1l-1 5h-15z" id="svg-layer-80" style="pointer-events: all;"/><path fill="#47545B" d="M451 634h12l1 4h8v1c-6.968 1.327-13.93 1.088-21 1-1.125-3.75-1.125-3.75 0-6" id="svg-layer-81" style="pointer-events: all;"/><path fill="#798389" d="m23 783 6 1c.125 2.875.125 2.875 0 6-2 2-2 2-5.375 2.5C20 792 20 792 17.563 789.125 16 786 16 786 16 784h3l1 3zM23 772l6 1c.125 2.875.125 2.875 0 6-2 2-2 2-5.375 2.5C20 781 20 781 17.563 778.125 16 775 16 775 16 773h3l1 3z" id="svg-layer-82" style="pointer-events: all;"/><path fill="#788389" d="M23 761c4.875.875 4.875.875 6 2 .188 2.438.188 2.438 0 5-2 2-2 2-5.375 2.5C20 770 20 770 17.563 767.125 16 764 16 764 16 762h3l1 3z" id="svg-layer-83" style="pointer-events: all;"/><path fill="#858F94" d="M20 952c3.375-.125 3.375-.125 7 0 2 2 2 2 2.25 4.5C29 959 29 959 27 961c-3.625.125-3.625.125-7 0-1.125-6.75-1.125-6.75 0-9" id="svg-layer-84" style="pointer-events: all;"/><path fill="#455158" d="M743 527h5c3.249 4.975 4.5 7.882 4 14l-4 1q-1.259-2.903-2.5-5.812l-1.406-3.27C743 530 743 530 743 527" id="svg-layer-85" style="pointer-events: all;"/><path fill="#848E93" d="M20 899c3.375-.125 3.375-.125 7 0 2 2 2 2 2.25 4.5C29 906 29 906 27 908c-3 .25-3 .25-6 0l-2-2c.375-3.625.375-3.625 1-7" id="svg-layer-86" style="pointer-events: all;"/><path fill="#4D5A62" d="m310 288 3.438.563L317 289l1-1c2.67-.141 5.324-.042 8 0l-1 6h-15z" id="svg-layer-87" style="pointer-events: all;"/><path fill="#747E83" d="M29 795v3h-3v6h-3v-2l-2.375-.937C18 800 18 800 16 799v-4c8.429-1.286 8.429-1.286 13 0" id="svg-layer-88" style="pointer-events: all;"/><path fill="#647077" d="m19 879 5 3 5-3c-.875 3.875-.875 3.875-2 5l2 1v3H14v-3l7-1-2-2z" id="svg-layer-89" style="pointer-events: all;"/><path fill="#4E5C64" d="M323 271c1.805 1.422 1.805 1.422 3 3v2h-16l-2-5c4.868-1.46 10.09-1.165 15 0" id="svg-layer-90" style="pointer-events: all;"/><path fill="#6E797F" d="M15 916h3v6h2l1-5c5.75-1.125 5.75-1.125 8 0v7l-3 1-1-6-4 5c-4.875-.875-4.875-.875-6-2-.04-2-.043-4 0-6" id="svg-layer-91" style="pointer-events: all;"/><path fill="#F2D047" d="M303 275h3v23h-3z" id="svg-layer-92" style="pointer-events: all;"/><path fill="#647077" d="M16 816h2v5h3l1-4c2.375-.625 2.375-.625 5-1 2 2 2 2 2.125 5.125L29 824l-3-1 1-4h-4v5l-7-1z" id="svg-layer-93" style="pointer-events: all;"/><path fill="#526069" d="M752 539c2.6 3.9 2.15 7.474 2 12l-1.875.375C750 552 750 552 748 554v-12h2l1-2z" id="svg-layer-94" style="pointer-events: all;"/><path fill="#636F76" d="M20.438 750.688c2.955.36 3.75 1.024 5.562 3.312l1-3h2v9c-3-1-3-1-4.437-3.062L23 755h-4v4l-3-1c-.125-2.375-.125-2.375 0-5 2-2 2-2 4.438-2.312" id="svg-layer-95" style="pointer-events: all;"/><path fill="#47535A" d="m662.25 387.25 1.75.75-2 7h-2v2l-9 2c2-4 2-4 5-5v-3c3.182-4.09 3.182-4.09 6.25-3.75" id="svg-layer-96" style="pointer-events: all;"/><path fill="#515F67" d="m318.625 297.438 3.602.308L325 298l-1 4h-14v-4c2.944-1.472 5.374-.85 8.625-.562" id="svg-layer-97" style="pointer-events: all;"/><path fill="#5E6B73" d="m20 944 1 3h6v-2h2v5H14v-3h5z" id="svg-layer-98" style="pointer-events: all;"/><path fill="#404B52" d="m707.688 507.875 2.449.055L712 508l-2 5-9 1-1-4c3.204-2.136 4.02-2.231 7.688-2.125" id="svg-layer-99" style="pointer-events: all;"/><path fill="#4C5961" d="m531 677 1.938.563L535 678l1-1a75 75 0 0 1 4.563-.062l2.503.027L545 677v2l2 1c-5.385.917-10.542 1.111-16 1z" id="svg-layer-100" style="pointer-events: all;"/></svg>