<svg xmlns="http://www.w3.org/2000/svg" width="204" height="266"><path fill="#101010" d="M0 0h204v266H0z" id="svg-layer-0" style="pointer-events: all;"/><path fill="none" d="M0 0h204v266H0zm77.105 31.996C73.75 36.316 71 40.39 71 46l-2.055-.14c-13.493-.524-23.98 5.916-33.882 14.765-9.219 15.084-10.908 34.566-12.813 51.75l-.387 3.454C19.603 137.845 19.603 137.845 24 146c1.037 5.96 1.28 11.963 1.563 18l.13 2.637q.157 3.18.307 6.363l-6.024.562C18 174 18 174 15.688 176.25L14 179l-1.437 2.313L11 184l-1.191 1.637C1.984 196.778 2.606 209.984 3 223l13-1c.839-3.354 1.08-5.228.879-8.547l-.147-2.558-.17-2.645-.158-2.691Q16.21 202.279 16 199l1.704.806c5.909 2.725 11.951 4.117 18.296 5.381l2.515.505C44.32 206.803 50.11 207.502 56 208l.766 2.266c1.321 2.927 2.623 4.343 4.984 6.484 7.182 7 10.965 14.197 13.983 23.666 1.847 5.481 4.21 7.99 9.275 10.63 10.708 3.557 24.238 3.489 34.984.099 5.928-3.38 7.97-7.799 9.945-13.958 3.14-9.001 7.455-14.969 14.45-21.449C146 214 146 214 147.192 211.495c2.462-3.397 4.261-3.466 8.347-4.155l1.94-.354c2.046-.37 4.095-.711 6.146-1.048 8.594-1.46 16.543-2.918 24.375-6.938.097 6.339-.172 12.455-.977 18.75L187 220c2.665 2.665 4.351 2.418 8.063 2.688l3.285.261L201 223c1.633-1.633 1.171-3.434 1.188-5.687C202.028 203.679 200.2 191.38 191 181l-1.5-3.25c-1.5-2.75-1.5-2.75-3.875-4.125-2.65-.63-4.913-.78-7.625-.625v-7l3.563.188c5.973-.032 9.994-1.745 14.25-6 3.727-5.432 4.657-9.573 3.726-16.012-1.37-5.531-4.985-9.023-9.539-12.176l-3-1a126 126 0 0 1-3-7l-1-1c-.24-1.726-.421-3.46-.578-5.195-1.12-11.57-2.39-22.997-4.86-34.368l-.584-2.748c-2.16-9.487-4.69-18.842-12.86-24.787C153.657 49.564 145.512 45.144 133 46l-.25-3.125C131.286 35.313 126.172 30.285 120 26c-2.94-1.327-5.871-2.235-9-3l-2.004-.559c-11.32-2.503-23.917 1.154-31.89 9.555" id="svg-layer-1" style="pointer-events: all; fill: none;"/><path fill="#30302F" d="M138 86c11.828 9.655 11.828 9.655 15 16 .128 1.555.198 3.115.237 4.674l.08 2.945.07 3.197.077 3.29q.078 3.457.149 6.913c.074 3.505.165 7.01.256 10.514q.073 3.36.143 6.72l.088 3.155c.117 6.85.136 13.993-3.58 19.975l-1.708 1.742-1.667 1.758C145 169 145 169 143.227 170.41c-3.905 3.338-5.678 5.665-6.086 10.874q0 2.89.109 5.778l-.031 2.931c.074 4.532.228 7.954 3.14 11.565C143 204 143 204 146 206c-.996 3.651-2.584 5.747-5.25 8.313-7.471 7.207-11.19 14.483-14.637 24.183-1.562 4.015-2.78 6.735-6.55 9.004-9.818 4.134-23.84 4.25-33.836.547-6.53-3.96-7.769-10.173-9.995-17.049-1.772-5.18-3.458-8.366-7.732-11.998a1523 1523 0 0 1-4.75-4.562l-2.36-2.254c-1.877-2.168-2.51-3.386-2.89-6.184l1.46-1.137c.633-.511 1.264-1.023 1.915-1.55l1.898-1.512c4.667-4.867 4.175-11.153 4.159-17.488-.128-4.775-.43-8.282-3.8-11.91L62 171l-2.008-1.746a115 115 0 0 0-4.125-3.383c-4.967-4.977-5.225-10.09-5.284-16.782l.019-3.495-.01-3.63q-.002-3.793.017-7.586c.016-3.864 0-7.728-.02-11.593q.004-3.69.013-7.379l-.019-3.495c.062-7.033.521-11.917 5.608-17.177l2.371-1.984 2.38-2.016L63 89l2-2v11l-5.371 2.93C58 102 58 102 57 104a95 95 0 0 0-.193 5.12l-.049 3.237a3356 3356 0 0 0-.108 14.645 925 925 0 0 1-.082 7.735c-.055 3.71-.077 7.42-.091 11.13l-.07 3.498c.022 7.986.022 7.986 2.95 11.315 2.516 1.257 4.982 2.408 7.643 3.32.826-14.775 1.11-29.517 1.125-44.312l.008-2.587q.007-3.67 0-7.34l.006-2.24c-.014-3.114-.147-5.544-1.139-8.521h3l.018 3.052q.086 14.28.218 28.556c.044 4.893.084 9.786.11 14.679q.041 7.09.117 14.18.025 2.698.035 5.395c.044 11.548.117 21.787 7.545 31.302 2.385 2.237 4.839 3.462 7.77 4.899 2.89 1.425 2.89 1.425 5.187 2.937 1.063 3.75 1.063 3.75 1 7l2 2h-5l-2-5-10-1 1 2c.151 1.52.249 3.045.316 4.57l.127 2.715.12 2.84.13 2.863q.16 3.506.307 7.012h8l2-5h5l-2.246 5.469c-1.016 3.41-1.313 7-1.754 10.531l24-1c-.677-5.42-1.17-9.118-3-14l4-1 1 3h10l1-16-11-1-2 4-3-2 1-1-.062-3.25C113 204 113 204 115.043 202.707q2.654-1.176 5.312-2.34c6.336-3.275 9.605-8.595 12.002-15.15 1.03-3.55 1.067-6.946 1.044-10.62l.02-2.418c.02-2.61.02-5.218.02-7.827q.019-2.734.04-5.467c.036-4.777.057-9.553.072-14.33q.036-11.499.122-22.998c.016-2.678.02-5.355.023-8.033l.03-4.897-.007-2.263c.052-5.137.052-5.137 2.279-7.364l1 63c3 1 3 1 6.063-.187 3.1-1.914 3.694-2.537 4.937-5.813.26-2.346.26-2.346.275-4.965l.029-2.983-.003-3.204.013-3.31q.009-3.464.002-6.927c-.003-3.532.02-7.062.045-10.593q.004-3.367.002-6.733l.028-3.198c-.058-9.178-.058-9.178-3.391-13.087-1.824-1.145-1.824-1.145-3.687-1.812L138 98z" id="svg-layer-2" style="pointer-events: all;"/><path fill="#323231" d="M131 148q.149 7.015.22 14.032.03 2.382.082 4.763c.364 17.01.364 17.01-4.302 24.205l-1.086 1.714c-3.797 5.214-9.668 8.108-15.914 9.286-10.497.761-20.422.51-28.937-6.375-8.294-10.555-8.342-19.788-8.188-32.625q.016-2.185.027-4.371.035-5.315.098-10.629 8.242-.216 16.486-.427l5.594-.146c27.509-.722 27.509-.722 35.92.573M122.563 32.188c5.58 6.44 8.572 11.826 8.535 20.449l-.01 3.935-.025 4.115q-.008 2.076-.014 4.15Q131.03 69.92 131 75l-3.648.113q-2.364.099-4.727.2l-2.406.068c-2.081.097-4.153.349-6.219.619l-2 3c-2.98.267-5.749.348-8.727.293l-2.614-.013c-2.762-.017-5.523-.054-8.284-.093q-2.805-.022-5.61-.04Q79.884 79.093 73 79q-.074-5.947-.11-11.896c-.015-2.001-.04-4.003-.066-6.004-.057-11.361.35-19.512 8.176-28.1 10.895-10.609 30.191-10.52 41.563-.812" id="svg-layer-3" style="pointer-events: all;"/><path fill="#FADB0A" d="M73 122h58v24H73z" id="svg-layer-4" style="pointer-events: all;"/><path fill="#323231" d="m52 62-1.25 3.563A699 699 0 0 0 49 71l-.984 3.059c-4.23 14.33-5.505 29.262-6.54 44.12l-.247 3.552q-.225 3.382-.407 6.766c-.346 5.455-.655 9.852-3.822 14.503-3.47 2.313-4.922 2.425-9 2-2.56-1.853-2.98-2.938-4-6-.609-9.908.504-19.742 1.688-29.562l.265-2.25c4.36-36.472 4.36-36.472 11.809-42.649C42.77 62.162 46.459 61.604 52 62M88.898 97.867l3.7-.004 3.777.012 3.848-.012 3.675.004 3.334.004C110 98 110 98 113 99v3l18 1v17H73V99c5.51-.612 10.445-1.127 15.898-1.133" id="svg-layer-5" style="pointer-events: all;"/><path fill="#E5E9ED" d="M55 64c6.698 1.935 6.698 1.935 9 5 .363 2.488.363 2.488.313 5.313l-.012 2.8c-.684 6.559-2.995 10.097-7.801 14.45-4.366 3.987-7.178 7.115-7.767 13.2l-.024 3.034-.038 3.459-.007 3.709-.02 3.836q-.016 4.014-.015 8.027c0 3.417-.027 6.834-.061 10.251-.028 3.275-.027 6.549-.029 9.823l-.043 3.703c.034 6.456.13 10.506 4.504 15.395l2.25 2.875L57 171h-8a1789 1789 0 0 1-3.875-7.125l-1.105-2.016C40.902 156.08 38.314 150.723 39 144l1.469-3.205c1.675-3.794 2.114-7.467 2.34-11.58l.318-4.516.152-2.357C46.564 72.436 46.564 72.436 55 64" id="svg-layer-6" style="pointer-events: all;"/><path fill="#0F0F0E" d="M188 135c3.657 2.06 6.827 4.896 8 9 .453 5.622.19 9.161-3 14-3.652 3.378-6.259 4.833-11.25 5.313-4.817-.402-6.817-1.514-10.75-4.313-3.032-3.74-3.838-7.216-4-12 .912-4.726 2.228-7.373 6-10.437 5.32-2.771 9.238-3.008 15-1.563" id="svg-layer-7" style="pointer-events: all;"/><path fill="#E7EBEF" d="M141 69c4.084.541 6.46 1.686 9.625 4.313l2.29 1.8c6.223 8.614 5.889 21.09 6.71 31.387l.367 4.3c.449 5.259.881 10.518 1.278 15.78l.25 3.233.206 2.8C162 135 162 135 163.063 138.5c2.936 10.962.156 18.608-5.02 28.227C156 170 156 170 153 172c-3.188-.375-3.188-.375-6-1l1.207-1.285 1.606-1.778 1.582-1.722c4.756-6.562 5.04-12.392 4.968-20.266l.002-3.194q-.004-3.334-.029-6.669a1134 1134 0 0 1-.014-10.13q-.007-3.254-.021-6.507l.003-3.025c-.09-8.955-.269-17.238-6.714-23.967-1.393-1.276-2.862-2.469-4.34-3.644-2.448-1.972-3.17-2.9-4.25-5.813-.195-3.453-.195-3.453-.125-7.25l.055-3.828z" id="svg-layer-8" style="pointer-events: all;"/><path fill="#56595B" d="m70.79 81.88 2.363.006h2.669l2.9.016 2.956.005c3.128.005 6.256.018 9.385.03q3.172.008 6.345.014 7.796.017 15.592.049l-1 13H68c0-12.933 0-12.933 2.79-13.12" id="svg-layer-9" style="pointer-events: all;"/><path fill="#B8BCBE" d="m123.875 76.75 2.223-.062c5.421-.04 5.421-.04 7.619 1.568 1.595 2.168 1.633 3.305 1.576 5.974l-.03 2.432c-.024.833-.05 1.667-.076 2.525l-.04 2.561c-.036 2.084-.09 4.168-.147 6.252h-3v2q-3.97.04-7.937.063l-2.288.025A183 183 0 0 1 116 100c-1.622-1.622-1.13-3.42-1.133-5.656l-.004-2.848.012-2.996-.012-2.996.004-2.848.004-2.63c.304-4.766 5.299-3.25 9.004-3.276" id="svg-layer-10" style="pointer-events: all;"/><path fill="#E0E5E8" d="M139 101c5.161 2.58 5.161 2.58 7 5 .394 2.232.394 2.232.42 4.867l.048 2.994v3.229l.024 3.321q.015 3.48.009 6.958c-.001 3.552.04 7.101.085 10.652q.008 3.378.008 6.756l.05 3.223c-.07 7.357-.07 7.357-3.056 10.701C141 160 141 160 139 160z" id="svg-layer-11" style="pointer-events: all;"/><path fill="#EAEEF2" d="M65 102v58c-5-2-5-2-6-4a85 85 0 0 1-.161-4.861l-.03-3.064-.012-3.321-.017-3.4q-.014-3.565-.02-7.13c-.01-3.643-.041-7.286-.072-10.93q-.01-3.457-.016-6.915l-.038-3.315.01-3.074-.011-2.707C59 105 59 105 60.335 103.188 62 102 62 102 65 102" id="svg-layer-12" style="pointer-events: all;"/><path fill="#E6EAED" d="m184 140 2 1v2l-6 5v2c1.875-.187 1.875-.187 4-1 1.25-2.562 1.25-2.562 2-5h2v4l4 1c-.218 3.81-.994 4.994-3.687 7.813-3.65 2.41-5.054 2.912-9.313 2.187-3.494-1.668-4.827-2.74-7-6-.672-6.947-.672-6.947 1.875-10.937 3.608-3.503 5.321-3.064 10.125-2.063" id="svg-layer-13" style="pointer-events: all;"/><path fill="#4C4E4F" d="M145 64c4.785.437 7.45 2.682 10.813 5.875l1.59 1.497c13.689 13.217 22.148 32 22.699 51.16L180 125l-4-1c-.23-1.293-.461-2.586-.7-3.918C170.994 96.772 163.54 80.024 144 66z" id="svg-layer-14" style="pointer-events: all;"/><path fill="#121313" d="M118 79h11v19h-11z" id="svg-layer-15" style="pointer-events: all;"/><path fill="#323231" d="M152 62c6.177-.441 11.054-.03 16 4 3.635 4.964 4.776 11.506 6.313 17.375l.557 2.128c.817 3.348 1.241 5.163.13 8.497l-1.102-2.344c-4.968-10.293-10.079-17.29-18.824-24.676C153 65 153 65 152 62" id="svg-layer-16" style="pointer-events: all;"/><path fill="#656666" d="M159.973 57.223c1.36.898 2.698 1.832 4.027 2.777-3.727 1.864-8.33.89-12.422.742-3.918.283-6.21 1.299-9.578 3.258l-2 1-.805-1.715-1.07-2.222-1.055-2.215C136 57 136 57 134 56v-3c10.435-3.407 16.793-1.467 25.973 4.223" id="svg-layer-17" style="pointer-events: all;"/><path fill="#323231" d="M187 193c-1.36 3.176-1.79 3.887-4.98 5.613-4.64 1.776-9.463 2.664-14.333 3.575l-2.744.537C158.34 204 158.34 204 156 204c.586-6.152.586-6.152 1-8 3.425-1.713 7.286-1.675 11.063-2.062l2.49-.276c5.512-.577 10.905-.746 16.447-.662" id="svg-layer-18" style="pointer-events: all;"/><path fill="#666767" d="M66.938 52.5 70 54l-.812 1.563C67.677 58.664 66.344 61.823 65 65l-1.562-.812L61 63l-3.25-1.625C51.687 59.152 46.316 59.737 40 61c6.921-7.599 17.02-12.59 26.938-8.5" id="svg-layer-19" style="pointer-events: all;"/><path fill="#656667" d="M188 135c3.657 2.06 6.827 4.896 8 9 .453 5.622.19 9.161-3 14-3.652 3.378-6.259 4.833-11.25 5.313-4.817-.402-6.817-1.514-10.75-4.313-3.032-3.74-3.838-7.216-4-12 .912-4.726 2.228-7.373 6-10.437 5.32-2.771 9.238-3.008 15-1.563m-15 5c-2.742 2.991-2.976 4.837-3.562 8.875.185 4.242 1.8 6.762 4.718 9.77 3.138 2.307 6.013 2.746 9.844 2.355 3.931-1.285 5.672-2.62 8.375-5.75 1.93-3.86 2.234-5.984 1.625-10.25-2.27-4.37-4.512-6.929-9-9-4.526 0-8.1 1.785-12 4" id="svg-layer-20" style="pointer-events: all;"/><path fill="#323231" d="M18 193c9.344.557 18.675 1.17 28 2l3 9q-5.252-.893-10.5-1.812l-2.977-.502C29.727 200.662 24.322 199.568 19 197c-.709-2.1-.709-2.1-1-4" id="svg-layer-21" style="pointer-events: all;"/><path fill="#676869" d="M13 186h1v33l-8 1c-.365-12.763.628-22.788 7-34" id="svg-layer-22" style="pointer-events: all;"/><path fill="#68696A" d="M190 186c7.1 5.631 7.415 14.942 8.442 23.327.404 3.574.649 7.077.558 10.673l-8-1 .035-3.797.028-4.953.025-2.5.01-2.422.016-2.222c-.117-2.157-.567-4.022-1.114-6.106a123 123 0 0 1-.062-5.75l.027-2.984z" id="svg-layer-23" style="pointer-events: all;"/><path fill="#686969" d="M29 148h7c.315.846.63 1.691.953 2.563 3.925 10.401 3.925 10.401 6.36 15.062C45 169 45 169 45 172c-2.687.5-2.687.5-6 0-5.308-5.261-7.772-14.07-10-21z" id="svg-layer-24" style="pointer-events: all;"/><path fill="#676868" d="M25 184c3.125-.029 6.25-.047 9.375-.062l2.695-.026 2.578-.01 2.38-.016C44 184 44 184 46 185v8q-3.844-.213-7.687-.437l-2.186-.12c-3.794-.225-7.414-.571-11.127-1.443z" id="svg-layer-25" style="pointer-events: all;"/><path fill="#686A6A" d="M179 184v7c-4.427 1.039-8.79 1.316-13.312 1.563l-2.245.13q-2.72.158-5.443.307v-8c7.018-1.1 13.906-1.097 21-1" id="svg-layer-26" style="pointer-events: all;"/><path fill="#525556" d="M110 229c1.257 2.906 2 4.796 2 8H93c1-7 1-7 2-8 5.349-1.092 9.681-.84 15 0" id="svg-layer-27" style="pointer-events: all;"/><path fill="#CBD0D2" d="M97 213h10c1.926 3.851 1.049 8.8 1 13H97z" id="svg-layer-28" style="pointer-events: all;"/><path fill="#050505" d="m70 199 3 1c1.177 4.625 1.114 9.079 1.063 13.813l-.014 2.388q-.02 2.9-.049 5.799l-2-1-.687-2.187c-1.635-3.502-3.785-5.026-6.852-7.286C63 210 63 210 63 206a112 112 0 0 1 6-5z" id="svg-layer-29" style="pointer-events: all;"/><path fill="#323231" d="M32.23 174.762c2.083-.137 2.083-.137 5.77.238 2.5 2.375 2.5 2.375 4 5v2c-8.079.096-15.983.125-24-1 .375-1.937.375-1.937 1-4 4.024-2.012 8.81-1.766 13.23-2.238M166 175c2.752.087 5.5.194 8.25.313l2.355.068c7.39.347 7.39.347 10.395 3.619v2c-8.356 1.101-16.588 1.1-25 1z" id="svg-layer-30" style="pointer-events: all;"/><path fill="#4E5052" d="M83.563 208.938 86 209v6h3v6h-3v6h-6q-.04-4.22-.062-8.437l-.026-2.432c-.009-2.044.036-4.088.088-6.131 1-1 1-1 3.563-1.062" id="svg-layer-31" style="pointer-events: all;"/><path fill="#656667" d="M165 157h2a125 125 0 0 1 4 6l-5 9h-8z" id="svg-layer-32" style="pointer-events: all;"/><path fill="#BDC2C3" d="m94 204 16 1v5q-3.72.04-7.437.063l-2.143.025c-1.807.009-3.614-.036-5.42-.088l-1-1z" id="svg-layer-33" style="pointer-events: all;"/><path fill="#666768" d="M188 135c3.65 2.085 6.824 4.884 8 9 .145 2.69.09 5.3 0 8h-2l-.262-1.793c-.977-5.497-2.067-8.73-6.738-12.207-4.37-1.942-7.945-.242-12.207 1.309L173 140v-3c5.15-3.302 9.232-3.703 15-2" id="svg-layer-34" style="pointer-events: all;"/><path fill="#4D4F50" d="M121.563 211.938 124 212q.29 3.218.563 6.438l.316 3.62L125 225c-1 1-1 1-3.562 1.063L119 226q-.29-3.218-.562-6.437l-.317-3.622L118 213c1-1 1-1 3.563-1.062" id="svg-layer-35" style="pointer-events: all;"/><path fill="#56595B" d="M120 82h6v13h-6z" id="svg-layer-36" style="pointer-events: all;"/><path fill="#606162" d="M183 138h3v2l1.875.813C190 142 190 142 192 145v4l-4-1v-4c-2 1-2 1-2.875 3.5-1.125 2.5-1.125 2.5-3.25 3.313L180 151c0-4 0-4 1.875-6.25C184 143 184 143 186 143v-2l-5-1z" id="svg-layer-37" style="pointer-events: all;"/><path fill="#56595B" d="M91.563 31.938 94 32v3l-2.687.938C86.809 38.74 85.226 42.3 83 47h-3c1.6-5.968 3.127-9.896 8-14 1-1 1-1 3.563-1.062" id="svg-layer-38" style="pointer-events: all;"/><path fill="#323231" d="M69 60h1v19l-3 1a748 748 0 0 1-.125-7.187l-.05-2.042C66.784 66.711 67.2 63.65 69 60M134 61h2c1.586 3.172 1.379 6.635 1.563 10.125l.13 2.285q.158 2.795.307 5.59c-1.984-1.02-1.984-1.02-4-3-.296-2.712-.38-4.997-.25-7.687l.055-2.127c.047-1.73.118-3.458.195-5.186" id="svg-layer-39" style="pointer-events: all;"/><path fill="#131313" d="M60 191v5c-2.375.625-2.375.625-5 1l-2-2v-4c2.667-1.333 4.167-.671 7 0" id="svg-layer-40" style="pointer-events: all;"/><path fill="#131414" d="M147.563 180.938 150 181c1.125 4.75 1.125 4.75 0 7l-5-1a88 88 0 0 1-1-5c1-1 1-1 3.563-1.062" id="svg-layer-41" style="pointer-events: all;"/><path fill="#636565" d="M29 159c2.408 2.408 3.008 4.422 4.125 7.625l1.07 3.04L35 172h-6z" id="svg-layer-42" style="pointer-events: all;"/><path fill="#121213" d="M55 180c2.125.375 2.125.375 4 1a88 88 0 0 1 1 5c-1 1-1 1-3.562 1.063L54 187c-.625-2.375-.625-2.375-1-5z" id="svg-layer-43" style="pointer-events: all;"/><path fill="#020202" d="M145 190q2.514.428 5 1c1.125 3.75 1.125 3.75 0 6l-5-1a88 88 0 0 1-1-5z" id="svg-layer-44" style="pointer-events: all;"/><path fill="#121212" d="M170 146h1l.75 3.25c1.31 3.93 1.886 5.421 5.25 7.75 2.968.897 5.942 1.503 9 2-2 2-2 2-5.75 2.063-4.398-.683-6.534-2.6-9.195-6.075-1.609-3.032-1.464-5.647-1.055-8.988" id="svg-layer-45" style="pointer-events: all;"/><path fill="#636566" d="m182 183 5 1v6l-5 1z" id="svg-layer-46" style="pointer-events: all;"/><path fill="#B0B4B5" d="M110 216h6v6h-6z" id="svg-layer-47" style="pointer-events: all;"/><path fill="#333332" d="m42 174 6 1-1 7c-3-1-3-1-4.187-2.875C42 177 42 177 42 174" id="svg-layer-48" style="pointer-events: all;"/><path fill="#232323" d="m184 143 3 1c-1.25 2.938-1.25 2.938-3 6-2.187.875-2.187.875-4 1 0-4 0-4 2-6.25z" id="svg-layer-49" style="pointer-events: all;"/><path fill="#686969" d="m173 164 2 1v7h-6z" id="svg-layer-50" style="pointer-events: all;"/><path fill="#3F4040" d="M119 212h5a109 109 0 0 1-1 7l-2 1v-3l-3-1z" id="svg-layer-51" style="pointer-events: all;"/><path fill="#353535" d="M157 174q3.012.43 6 1l-3 6h-3a129 129 0 0 1-1-6z" id="svg-layer-52" style="pointer-events: all;"/><path fill="#5C5E5F" d="M18 184h4v7h-4z" id="svg-layer-53" style="pointer-events: all;"/><path fill="#252626" d="M192 147c2 3 2 3 1.438 5.938-1.624 3.46-3.316 4.926-6.438 7.062l-2-2 2.375-1.562c3.18-2.954 3.74-5.254 4.625-9.438" id="svg-layer-54" style="pointer-events: all;"/><path fill="#2A2A2A" d="M178 138v2l-2.437 2.25c-2.85 3.058-3.278 4.661-3.563 8.75h-1c-1.162-4.067-1.262-5.52.813-9.312C174.814 138 174.814 138 178 138" id="svg-layer-55" style="pointer-events: all;"/><path fill="#D6DADD" d="M71 204v9l-5-5c3.875-4 3.875-4 5-4" id="svg-layer-56" style="pointer-events: all;"/><path fill="#DBE0E3" d="M176 128h6l1 3h-7z" id="svg-layer-57" style="pointer-events: all;"/><path fill="#E9EDF0" d="m134 205 4 4-4 3z" id="svg-layer-58" style="pointer-events: all;"/><path fill="#CDD2D4" d="M91 216h3v5h-3z" id="svg-layer-59" style="pointer-events: all;"/><path fill="#10100F" d="m171 164 1 3-2 2h-2c.375-1.937.375-1.937 1-4z" id="svg-layer-60" style="pointer-events: all;"/><path fill="#646666" d="M64 49h6v3l-6-2z" id="svg-layer-61" style="pointer-events: all;"/><path fill="#8B8D8E" d="m174 136 3 1-3 3-2-2z" id="svg-layer-62" style="pointer-events: all;"/><path fill="#454747" d="M75 224h2l1 3-1 2h-2z" id="svg-layer-63" style="pointer-events: all;"/><path fill="#1B1B1B" d="m186 139 5 1v3z" id="svg-layer-64" style="pointer-events: all;"/><path fill="#656767" d="M146 192h3l-1 3-2-1z" id="svg-layer-65" style="pointer-events: all;"/><path fill="#343434" d="m189 155 3 1-3 2z" id="svg-layer-66" style="pointer-events: all;"/></svg>